<svg width="100" height="80" viewBox="0 0 100 80" fill="none" xmlns="http://www.w3.org/2000/svg">
  <g clip-path="url(#clip0_1615_14643)">
    <path d="M56.1006 45.0126C56.1006 45.0126 92.0183 44.1767 92.2019 71.3474" stroke="#965AFF" stroke-width="5.60547" stroke-miterlimit="10"/>
    <path d="M64.1426 64.1147C62.3277 66.2467 59.6073 67.6014 56.5659 67.6014C53.5245 67.6014 50.8035 66.246 48.9892 64.1147H36.6741C34.8592 66.2467 32.1389 67.6014 29.0974 67.6014C26.056 67.6014 23.335 66.246 21.5208 64.1147H14.5981C17.0476 69.6177 22.6174 73.4613 29.0967 73.4613C34.9723 73.4613 40.0995 70.3019 42.831 65.61C45.5625 70.3019 50.6904 73.4613 56.5652 73.4613C63.0453 73.4613 68.6143 69.6177 71.0638 64.1147H64.1419H64.1426Z" fill="white"/>
    <path d="M19.2182 58.3741C19.2084 58.1957 19.2029 58.0165 19.2029 57.836C19.2029 52.4419 23.6327 48.0698 29.0964 48.0698C34.5601 48.0698 38.9899 52.4426 38.9899 57.836C38.9899 58.0165 38.9843 58.1957 38.9746 58.3741H46.686C46.6762 58.1957 46.6706 58.0165 46.6706 57.836C46.6706 52.4419 51.1005 48.0698 56.5642 48.0698C62.0278 48.0698 66.4577 52.4426 66.4577 57.836C66.4577 58.0165 66.4521 58.1957 66.4423 58.3741H72.3835C72.3898 58.1957 72.394 58.0165 72.394 57.836C72.394 49.2061 65.3066 42.21 56.5642 42.21C50.6886 42.21 45.5614 45.3693 42.8299 50.0612C40.0984 45.3693 34.9705 42.21 29.0957 42.21C20.354 42.2093 13.2666 49.2054 13.2666 57.836C13.2666 58.0165 13.2708 58.1957 13.2771 58.3741H19.2182Z" fill="#965AFF"/>
    <path d="M19.2674 38.2363H13.2773V58.3744H19.2674V38.2363Z" fill="#965AFF"/>
  </g>
  <path d="M10.4125 32H4.61875L11.3969 11.6375H18.6813L25.4313 32H19.6656L18.4422 28.0062H11.6219L10.4125 32ZM12.8594 23.9562H17.2047L15.1094 17.1219H14.9406L12.8594 23.9562ZM32.8 11.6375V32H27.4563V11.6375H32.8Z" fill="#F04452"/>
  <defs>
    <clipPath id="clip0_1615_14643">
      <rect width="81.7974" height="35.2259" fill="white" transform="translate(13.2666 38.2363)"/>
    </clipPath>
  </defs>
</svg>
