<svg width="160" height="160" viewBox="0 0 160 160" fill="none" xmlns="http://www.w3.org/2000/svg">
  <rect width="160" height="160" rx="80" fill="white"/>
  <path d="M92.1401 77.4727C92.1401 77.4727 141.731 76.3042 141.984 114.287" stroke="#965AFF" stroke-width="6.90236" stroke-miterlimit="10"/>
  <path d="M103.242 104.177C100.736 107.157 96.9805 109.051 92.7813 109.051C88.5821 109.051 84.8252 107.156 82.3203 104.177H65.3172C62.8113 107.157 59.0555 109.051 54.8562 109.051C50.657 109.051 46.9002 107.156 44.3953 104.177H34.8374C38.2193 111.869 45.9094 117.242 54.8553 117.242C62.9675 117.242 70.0465 112.826 73.8178 106.267C77.5891 112.826 84.6691 117.242 92.7803 117.242C101.727 117.242 109.416 111.869 112.798 104.177H103.241H103.242Z" fill="#100E10"/>
  <path d="M103.242 104.177C100.736 107.157 96.9805 109.051 92.7813 109.051C88.5821 109.051 84.8252 107.156 82.3203 104.177H65.3172C62.8113 107.157 59.0555 109.051 54.8562 109.051C50.657 109.051 46.9002 107.156 44.3953 104.177H34.8374C38.2193 111.869 45.9094 117.242 54.8553 117.242C62.9675 117.242 70.0465 112.826 73.8178 106.267C77.5891 112.826 84.6691 117.242 92.7803 117.242C101.727 117.242 109.416 111.869 112.798 104.177H103.241H103.242Z" fill="black" fill-opacity="0.2"/>
  <path d="M103.242 104.177C100.736 107.157 96.9805 109.051 92.7813 109.051C88.5821 109.051 84.8252 107.156 82.3203 104.177H65.3172C62.8113 107.157 59.0555 109.051 54.8562 109.051C50.657 109.051 46.9002 107.156 44.3953 104.177H34.8374C38.2193 111.869 45.9094 117.242 54.8553 117.242C62.9675 117.242 70.0465 112.826 73.8178 106.267C77.5891 112.826 84.6691 117.242 92.7803 117.242C101.727 117.242 109.416 111.869 112.798 104.177H103.241H103.242Z" fill="black" fill-opacity="0.2"/>
  <path d="M103.242 104.177C100.736 107.157 96.9805 109.051 92.7813 109.051C88.5821 109.051 84.8252 107.156 82.3203 104.177H65.3172C62.8113 107.157 59.0555 109.051 54.8562 109.051C50.657 109.051 46.9002 107.156 44.3953 104.177H34.8374C38.2193 111.869 45.9094 117.242 54.8553 117.242C62.9675 117.242 70.0465 112.826 73.8178 106.267C77.5891 112.826 84.6691 117.242 92.7803 117.242C101.727 117.242 109.416 111.869 112.798 104.177H103.241H103.242Z" fill="black" fill-opacity="0.2"/>
  <path d="M41.2173 96.1519C41.2038 95.9024 41.196 95.652 41.196 95.3996C41.196 87.8592 47.3122 81.7473 54.8558 81.7473C62.3994 81.7473 68.5156 87.8601 68.5156 95.3996C68.5156 95.652 68.5079 95.9024 68.4944 96.1519H79.1413C79.1278 95.9024 79.1201 95.652 79.1201 95.3996C79.1201 87.8592 85.2363 81.7473 92.7799 81.7473C100.323 81.7473 106.44 87.8601 106.44 95.3996C106.44 95.652 106.432 95.9024 106.418 96.1519H114.621C114.63 95.9024 114.636 95.652 114.636 95.3996C114.636 83.3357 104.85 73.5557 92.7799 73.5557C84.6677 73.5557 77.5887 77.9722 73.8174 84.5311C70.0461 77.9722 62.9661 73.5557 54.8548 73.5557C42.7853 73.5547 33 83.3347 33 95.3996C33 95.652 33.0058 95.9024 33.0145 96.1519H41.2173Z" fill="#965AFF"/>
  <path d="M41.2849 68H33.0146V96.1514H41.2849V68Z" fill="#965AFF"/>
  <path d="M30.0156 63H22.7734L31.2461 37.5469H40.3516L48.7891 63H41.582L40.0527 58.0078H31.5273L30.0156 63ZM33.0742 52.9453H38.5059L35.8867 44.4023H35.6758L33.0742 52.9453ZM58 37.5469V63H51.3203V37.5469H58Z" fill="#F04452"/>
</svg>
