<svg width="60" height="60" viewBox="0 0 60 60" fill="none" xmlns="http://www.w3.org/2000/svg">
  <path d="M40.375 32.4993H12.5C11.7917 32.4993 11.1979 32.2597 10.7188 31.7805C10.2396 31.3014 10 30.7076 10 29.9993C10 29.291 10.2396 28.6972 10.7188 28.218C11.1979 27.7389 11.7917 27.4993 12.5 27.4993H40.375L33.25 20.3743C32.75 19.8743 32.5104 19.291 32.5312 18.6243C32.5521 17.9576 32.7917 17.3743 33.25 16.8743C33.75 16.3743 34.3438 16.1139 35.0312 16.093C35.7188 16.0722 36.3125 16.3118 36.8125 16.8118L48.25 28.2493C48.5 28.4993 48.6771 28.7701 48.7812 29.0618C48.8854 29.3535 48.9375 29.666 48.9375 29.9993C48.9375 30.3326 48.8854 30.6451 48.7812 30.9368C48.6771 31.2285 48.5 31.4993 48.25 31.7493L36.8125 43.1868C36.3125 43.6868 35.7188 43.9264 35.0312 43.9055C34.3438 43.8847 33.75 43.6243 33.25 43.1243C32.7917 42.6243 32.5521 42.041 32.5312 41.3743C32.5104 40.7076 32.75 40.1243 33.25 39.6243L40.375 32.4993Z" 
  fill="#7E37F9"/>
</svg>


