<svg width="72" height="72" viewBox="0 0 72 72" fill="none" xmlns="http://www.w3.org/2000/svg">
    <path
        d="M30.3125 35.9698L48.6875 54.3448C49.3125 54.9698 49.6146 55.6989 49.5938 56.5323C49.5729 57.3656 49.25 58.0948 48.625 58.7198C48 59.3448 47.2708 59.6573 46.4375 59.6573C45.6042 59.6573 44.875 59.3448 44.25 58.7198L25 39.5323C24.5 39.0323 24.125 38.4698 23.875 37.8448C23.625 37.2198 23.5 36.5948 23.5 35.9698C23.5 35.3448 23.625 34.7198 23.875 34.0948C24.125 33.4698 24.5 32.9073 25 32.4073L44.25 13.1573C44.875 12.5323 45.6146 12.2302 46.4688 12.251C47.3229 12.2718 48.0625 12.5948 48.6875 13.2198C49.3125 13.8448 49.625 14.5739 49.625 15.4073C49.625 16.2406 49.3125 16.9698 48.6875 17.5948L30.3125 35.9698Z"
        fill="white" fill-opacity="1" />
</svg>