<svg width="78" height="70" viewBox="0 0 78 70" fill="none" xmlns="http://www.w3.org/2000/svg">
    <path
        d="M38.6119 55.9336C43.4234 55.9336 47.5132 54.2496 50.8813 50.8815C54.2493 47.5135 55.9334 43.4237 55.9334 38.6122C55.9334 33.8007 54.2493 29.7109 50.8813 26.3428C47.5132 22.9748 43.4234 21.2908 38.6119 21.2908C33.8004 21.2908 29.7106 22.9748 26.3426 26.3428C22.9745 29.7109 21.2905 33.8007 21.2905 38.6122C21.2905 43.4237 22.9745 47.5135 26.3426 50.8815C29.7106 54.2496 33.8004 55.9336 38.6119 55.9336ZM38.6119 48.2352C35.9175 48.2352 33.64 47.305 31.7796 45.4445C29.9191 43.5841 28.9889 41.3066 28.9889 38.6122C28.9889 35.9177 29.9191 33.6403 31.7796 31.7798C33.64 29.9194 35.9175 28.9892 38.6119 28.9892C41.3064 28.9892 43.5838 29.9194 45.4443 31.7798C47.3047 33.6403 48.235 35.9177 48.235 38.6122C48.235 41.3066 47.3047 43.5841 45.4443 45.4445C43.5838 47.305 41.3064 48.2352 38.6119 48.2352ZM7.81829 69.4058C5.70122 69.4058 3.88889 68.652 2.38128 67.1444C0.873676 65.6368 0.119873 63.8245 0.119873 61.7074V15.5169C0.119873 13.3999 0.873676 11.5875 2.38128 10.0799C3.88889 8.57233 5.70122 7.81853 7.81829 7.81853H19.9433L24.7548 2.6221C25.4605 1.85226 26.3105 1.2428 27.3049 0.793728C28.2993 0.344654 29.3418 0.120117 30.4324 0.120117H46.7915C47.8821 0.120117 48.9246 0.344654 49.919 0.793728C50.9134 1.2428 51.7634 1.85226 52.4691 2.6221L57.2806 7.81853H69.4056C71.5227 7.81853 73.335 8.57233 74.8426 10.0799C76.3502 11.5875 77.104 13.3999 77.104 15.5169V61.7074C77.104 63.8245 76.3502 65.6368 74.8426 67.1444C73.335 68.652 71.5227 69.4058 69.4056 69.4058H7.81829ZM7.81829 61.7074H69.4056V15.5169H53.8163L46.7915 7.81853H30.4324L23.4076 15.5169H7.81829V61.7074Z"
        fill="#100E10" />
    <path
        d="M38.6119 55.9336C43.4234 55.9336 47.5132 54.2496 50.8813 50.8815C54.2493 47.5135 55.9334 43.4237 55.9334 38.6122C55.9334 33.8007 54.2493 29.7109 50.8813 26.3428C47.5132 22.9748 43.4234 21.2908 38.6119 21.2908C33.8004 21.2908 29.7106 22.9748 26.3426 26.3428C22.9745 29.7109 21.2905 33.8007 21.2905 38.6122C21.2905 43.4237 22.9745 47.5135 26.3426 50.8815C29.7106 54.2496 33.8004 55.9336 38.6119 55.9336ZM38.6119 48.2352C35.9175 48.2352 33.64 47.305 31.7796 45.4445C29.9191 43.5841 28.9889 41.3066 28.9889 38.6122C28.9889 35.9177 29.9191 33.6403 31.7796 31.7798C33.64 29.9194 35.9175 28.9892 38.6119 28.9892C41.3064 28.9892 43.5838 29.9194 45.4443 31.7798C47.3047 33.6403 48.235 35.9177 48.235 38.6122C48.235 41.3066 47.3047 43.5841 45.4443 45.4445C43.5838 47.305 41.3064 48.2352 38.6119 48.2352ZM7.81829 69.4058C5.70122 69.4058 3.88889 68.652 2.38128 67.1444C0.873676 65.6368 0.119873 63.8245 0.119873 61.7074V15.5169C0.119873 13.3999 0.873676 11.5875 2.38128 10.0799C3.88889 8.57233 5.70122 7.81853 7.81829 7.81853H19.9433L24.7548 2.6221C25.4605 1.85226 26.3105 1.2428 27.3049 0.793728C28.2993 0.344654 29.3418 0.120117 30.4324 0.120117H46.7915C47.8821 0.120117 48.9246 0.344654 49.919 0.793728C50.9134 1.2428 51.7634 1.85226 52.4691 2.6221L57.2806 7.81853H69.4056C71.5227 7.81853 73.335 8.57233 74.8426 10.0799C76.3502 11.5875 77.104 13.3999 77.104 15.5169V61.7074C77.104 63.8245 76.3502 65.6368 74.8426 67.1444C73.335 68.652 71.5227 69.4058 69.4056 69.4058H7.81829ZM7.81829 61.7074H69.4056V15.5169H53.8163L46.7915 7.81853H30.4324L23.4076 15.5169H7.81829V61.7074Z"
        fill="black" fill-opacity="0.2" />
    <path
        d="M38.6119 55.9336C43.4234 55.9336 47.5132 54.2496 50.8813 50.8815C54.2493 47.5135 55.9334 43.4237 55.9334 38.6122C55.9334 33.8007 54.2493 29.7109 50.8813 26.3428C47.5132 22.9748 43.4234 21.2908 38.6119 21.2908C33.8004 21.2908 29.7106 22.9748 26.3426 26.3428C22.9745 29.7109 21.2905 33.8007 21.2905 38.6122C21.2905 43.4237 22.9745 47.5135 26.3426 50.8815C29.7106 54.2496 33.8004 55.9336 38.6119 55.9336ZM38.6119 48.2352C35.9175 48.2352 33.64 47.305 31.7796 45.4445C29.9191 43.5841 28.9889 41.3066 28.9889 38.6122C28.9889 35.9177 29.9191 33.6403 31.7796 31.7798C33.64 29.9194 35.9175 28.9892 38.6119 28.9892C41.3064 28.9892 43.5838 29.9194 45.4443 31.7798C47.3047 33.6403 48.235 35.9177 48.235 38.6122C48.235 41.3066 47.3047 43.5841 45.4443 45.4445C43.5838 47.305 41.3064 48.2352 38.6119 48.2352ZM7.81829 69.4058C5.70122 69.4058 3.88889 68.652 2.38128 67.1444C0.873676 65.6368 0.119873 63.8245 0.119873 61.7074V15.5169C0.119873 13.3999 0.873676 11.5875 2.38128 10.0799C3.88889 8.57233 5.70122 7.81853 7.81829 7.81853H19.9433L24.7548 2.6221C25.4605 1.85226 26.3105 1.2428 27.3049 0.793728C28.2993 0.344654 29.3418 0.120117 30.4324 0.120117H46.7915C47.8821 0.120117 48.9246 0.344654 49.919 0.793728C50.9134 1.2428 51.7634 1.85226 52.4691 2.6221L57.2806 7.81853H69.4056C71.5227 7.81853 73.335 8.57233 74.8426 10.0799C76.3502 11.5875 77.104 13.3999 77.104 15.5169V61.7074C77.104 63.8245 76.3502 65.6368 74.8426 67.1444C73.335 68.652 71.5227 69.4058 69.4056 69.4058H7.81829ZM7.81829 61.7074H69.4056V15.5169H53.8163L46.7915 7.81853H30.4324L23.4076 15.5169H7.81829V61.7074Z"
        fill="black" fill-opacity="0.2" />
    <path
        d="M38.6119 55.9336C43.4234 55.9336 47.5132 54.2496 50.8813 50.8815C54.2493 47.5135 55.9334 43.4237 55.9334 38.6122C55.9334 33.8007 54.2493 29.7109 50.8813 26.3428C47.5132 22.9748 43.4234 21.2908 38.6119 21.2908C33.8004 21.2908 29.7106 22.9748 26.3426 26.3428C22.9745 29.7109 21.2905 33.8007 21.2905 38.6122C21.2905 43.4237 22.9745 47.5135 26.3426 50.8815C29.7106 54.2496 33.8004 55.9336 38.6119 55.9336ZM38.6119 48.2352C35.9175 48.2352 33.64 47.305 31.7796 45.4445C29.9191 43.5841 28.9889 41.3066 28.9889 38.6122C28.9889 35.9177 29.9191 33.6403 31.7796 31.7798C33.64 29.9194 35.9175 28.9892 38.6119 28.9892C41.3064 28.9892 43.5838 29.9194 45.4443 31.7798C47.3047 33.6403 48.235 35.9177 48.235 38.6122C48.235 41.3066 47.3047 43.5841 45.4443 45.4445C43.5838 47.305 41.3064 48.2352 38.6119 48.2352ZM7.81829 69.4058C5.70122 69.4058 3.88889 68.652 2.38128 67.1444C0.873676 65.6368 0.119873 63.8245 0.119873 61.7074V15.5169C0.119873 13.3999 0.873676 11.5875 2.38128 10.0799C3.88889 8.57233 5.70122 7.81853 7.81829 7.81853H19.9433L24.7548 2.6221C25.4605 1.85226 26.3105 1.2428 27.3049 0.793728C28.2993 0.344654 29.3418 0.120117 30.4324 0.120117H46.7915C47.8821 0.120117 48.9246 0.344654 49.919 0.793728C50.9134 1.2428 51.7634 1.85226 52.4691 2.6221L57.2806 7.81853H69.4056C71.5227 7.81853 73.335 8.57233 74.8426 10.0799C76.3502 11.5875 77.104 13.3999 77.104 15.5169V61.7074C77.104 63.8245 76.3502 65.6368 74.8426 67.1444C73.335 68.652 71.5227 69.4058 69.4056 69.4058H7.81829ZM7.81829 61.7074H69.4056V15.5169H53.8163L46.7915 7.81853H30.4324L23.4076 15.5169H7.81829V61.7074Z"
        fill="black" fill-opacity="0.2" />
</svg>