<svg xmlns="http://www.w3.org/2000/svg" width="36" height="36" viewBox="0 0 36 36" fill="none">
  <path d="M12.576 23.55L29.526 6.6C29.926 6.2 30.3927 6 30.926 6C31.4593 6 31.926 6.2 32.326 6.6C32.726 7 32.926 7.475 32.926 8.025C32.926 8.575 32.726 9.05 32.326 9.45L13.976 27.85C13.576 28.25 13.1093 28.45 12.576 28.45C12.0427 28.45 11.576 28.25 11.176 27.85L2.576 19.25C2.176 18.85 1.98433 18.375 2.001 17.825C2.01767 17.275 2.226 16.8 2.626 16.4C3.026 16 3.501 15.8 4.051 15.8C4.601 15.8 5.076 16 5.476 16.4L12.576 23.55Z" fill="#6F6C6F"/>
</svg>