<svg xmlns="http://www.w3.org/2000/svg" width="60" height="60" viewBox="0 0 60 60" fill="none">
  <path d="M30.0003 35.652L45.3128 20.3395C45.8337 19.8187 46.45 19.567 47.1618 19.5843C47.8736 19.6017 48.4899 19.8708 49.0107 20.3916C49.5316 20.9125 49.792 21.5288 49.792 22.2406C49.792 22.9524 49.5316 23.5687 49.0107 24.0895L32.9691 40.0791C32.5524 40.4958 32.0837 40.8083 31.5628 41.0166C31.042 41.225 30.5212 41.3291 30.0003 41.3291C29.4795 41.3291 28.9587 41.225 28.4378 41.0166C27.917 40.8083 27.4482 40.4958 27.0316 40.0791L10.9899 24.0375C10.4691 23.5166 10.2173 22.909 10.2347 22.2145C10.2521 21.5201 10.5212 20.9125 11.042 20.3916C11.5628 19.8708 12.1791 19.6104 12.8909 19.6104C13.6028 19.6104 14.2191 19.8708 14.7399 20.3916L30.0003 35.652Z" fill="#D2D1D2"/>
</svg>