<svg width="24" height="24" viewBox="0 0 24 24" fill="none" xmlns="http://www.w3.org/2000/svg">
    <path
        d="M10.7791 17.2917L2.34884 8.86151C2.23256 8.74523 2.14535 8.61926 2.08721 8.4836C2.02907 8.34794 2 8.2026 2 8.04756C2 7.73748 2.10659 7.46616 2.31977 7.2336C2.53295 7.00104 2.81395 6.88477 3.16279 6.88477H20.8372C21.186 6.88477 21.4671 7.00104 21.6802 7.2336C21.8934 7.46616 22 7.73748 22 8.04756C22 8.12508 21.8837 8.39639 21.6512 8.86151L13.2209 17.2917C13.0271 17.4855 12.8333 17.6212 12.6395 17.6987C12.4457 17.7762 12.2326 17.815 12 17.815C11.7674 17.815 11.5543 17.7762 11.3605 17.6987C11.1667 17.6212 10.9729 17.4855 10.7791 17.2917Z"
        fill="white" />
</svg>