<svg width="567" height="107" viewBox="0 0 567 107" fill="none" xmlns="http://www.w3.org/2000/svg">
    <path fill-rule="evenodd" clip-rule="evenodd"
        d="M0.819942 50.9318C0.809082 51.4585 0.809082 52.0812 0.809082 53.3266C0.809082 54.5721 0.809082 55.1948 0.819942 55.7215C1.38486 83.1188 23.4597 105.194 50.8571 105.759C51.3838 105.769 52.0065 105.769 53.252 105.769H496.558C497.803 105.769 498.426 105.769 498.953 105.759C507.219 105.588 515.002 103.459 521.855 99.8168C528.845 103.836 536.951 106.135 545.593 106.135H566.034V105.016C557.526 97.8747 551.564 87.8127 549.649 76.3311C548.998 72.4329 548.998 67.7686 548.998 58.4399H548.862C548.928 57.5401 548.971 56.6337 548.99 55.7215C549.001 55.1948 549.001 54.5721 549.001 53.3266C549.001 52.0812 549.001 51.4585 548.99 50.9318C548.425 23.5345 526.35 1.45956 498.953 0.894649C498.426 0.883789 497.803 0.883789 496.558 0.883789H53.2519C52.0065 0.883789 51.3838 0.883789 50.8571 0.894649C23.4597 1.45956 1.38486 23.5345 0.819942 50.9318Z"
        fill="#A8A5A8" />
</svg>