<svg width="44" height="30" viewBox="0 0 44 30" fill="none" xmlns="http://www.w3.org/2000/svg">
    <path
        d="M21.9998 24C24.4998 24 26.6248 23.125 28.3748 21.375C30.1248 19.625 30.9998 17.5 30.9998 15C30.9998 12.5 30.1248 10.375 28.3748 8.625C26.6248 6.875 24.4998 6 21.9998 6C19.4998 6 17.3748 6.875 15.6248 8.625C13.8748 10.375 12.9998 12.5 12.9998 15C12.9998 17.5 13.8748 19.625 15.6248 21.375C17.3748 23.125 19.4998 24 21.9998 24ZM21.9998 20.4C20.4998 20.4 19.2248 19.875 18.1748 18.825C17.1248 17.775 16.5998 16.5 16.5998 15C16.5998 13.5 17.1248 12.225 18.1748 11.175C19.2248 10.125 20.4998 9.6 21.9998 9.6C23.4998 9.6 24.7748 10.125 25.8248 11.175C26.8748 12.225 27.3998 13.5 27.3998 15C27.3998 16.5 26.8748 17.775 25.8248 18.825C24.7748 19.875 23.4998 20.4 21.9998 20.4ZM21.9998 30C17.5331 30 13.4581 28.8 9.77481 26.4C6.09147 24 3.18314 20.8333 1.0498 16.9C0.883138 16.6 0.758138 16.2917 0.674805 15.975C0.591471 15.6583 0.549805 15.3333 0.549805 15C0.549805 14.6667 0.591471 14.3417 0.674805 14.025C0.758138 13.7083 0.883138 13.4 1.0498 13.1C3.18314 9.16667 6.09147 6 9.77481 3.6C13.4581 1.2 17.5331 0 21.9998 0C26.4665 0 30.5415 1.2 34.2248 3.6C37.9081 6 40.8165 9.16667 42.9498 13.1C43.1165 13.4 43.2415 13.7083 43.3248 14.025C43.4081 14.3417 43.4498 14.6667 43.4498 15C43.4498 15.3333 43.4081 15.6583 43.3248 15.975C43.2415 16.2917 43.1165 16.6 42.9498 16.9C40.8165 20.8333 37.9081 24 34.2248 26.4C30.5415 28.8 26.4665 30 21.9998 30ZM21.9998 26C25.7665 26 29.2248 25.0083 32.3748 23.025C35.5248 21.0417 37.9331 18.3667 39.5998 15C37.9331 11.6333 35.5248 8.95833 32.3748 6.975C29.2248 4.99167 25.7665 4 21.9998 4C18.2331 4 14.7748 4.99167 11.6248 6.975C8.4748 8.95833 6.06647 11.6333 4.3998 15C6.06647 18.3667 8.4748 21.0417 11.6248 23.025C14.7748 25.0083 18.2331 26 21.9998 26Z"
        fill="#100E10" />
    <path
        d="M21.9998 24C24.4998 24 26.6248 23.125 28.3748 21.375C30.1248 19.625 30.9998 17.5 30.9998 15C30.9998 12.5 30.1248 10.375 28.3748 8.625C26.6248 6.875 24.4998 6 21.9998 6C19.4998 6 17.3748 6.875 15.6248 8.625C13.8748 10.375 12.9998 12.5 12.9998 15C12.9998 17.5 13.8748 19.625 15.6248 21.375C17.3748 23.125 19.4998 24 21.9998 24ZM21.9998 20.4C20.4998 20.4 19.2248 19.875 18.1748 18.825C17.1248 17.775 16.5998 16.5 16.5998 15C16.5998 13.5 17.1248 12.225 18.1748 11.175C19.2248 10.125 20.4998 9.6 21.9998 9.6C23.4998 9.6 24.7748 10.125 25.8248 11.175C26.8748 12.225 27.3998 13.5 27.3998 15C27.3998 16.5 26.8748 17.775 25.8248 18.825C24.7748 19.875 23.4998 20.4 21.9998 20.4ZM21.9998 30C17.5331 30 13.4581 28.8 9.77481 26.4C6.09147 24 3.18314 20.8333 1.0498 16.9C0.883138 16.6 0.758138 16.2917 0.674805 15.975C0.591471 15.6583 0.549805 15.3333 0.549805 15C0.549805 14.6667 0.591471 14.3417 0.674805 14.025C0.758138 13.7083 0.883138 13.4 1.0498 13.1C3.18314 9.16667 6.09147 6 9.77481 3.6C13.4581 1.2 17.5331 0 21.9998 0C26.4665 0 30.5415 1.2 34.2248 3.6C37.9081 6 40.8165 9.16667 42.9498 13.1C43.1165 13.4 43.2415 13.7083 43.3248 14.025C43.4081 14.3417 43.4498 14.6667 43.4498 15C43.4498 15.3333 43.4081 15.6583 43.3248 15.975C43.2415 16.2917 43.1165 16.6 42.9498 16.9C40.8165 20.8333 37.9081 24 34.2248 26.4C30.5415 28.8 26.4665 30 21.9998 30ZM21.9998 26C25.7665 26 29.2248 25.0083 32.3748 23.025C35.5248 21.0417 37.9331 18.3667 39.5998 15C37.9331 11.6333 35.5248 8.95833 32.3748 6.975C29.2248 4.99167 25.7665 4 21.9998 4C18.2331 4 14.7748 4.99167 11.6248 6.975C8.4748 8.95833 6.06647 11.6333 4.3998 15C6.06647 18.3667 8.4748 21.0417 11.6248 23.025C14.7748 25.0083 18.2331 26 21.9998 26Z"
        fill="black" fill-opacity="0.2" />
    <path
        d="M21.9998 24C24.4998 24 26.6248 23.125 28.3748 21.375C30.1248 19.625 30.9998 17.5 30.9998 15C30.9998 12.5 30.1248 10.375 28.3748 8.625C26.6248 6.875 24.4998 6 21.9998 6C19.4998 6 17.3748 6.875 15.6248 8.625C13.8748 10.375 12.9998 12.5 12.9998 15C12.9998 17.5 13.8748 19.625 15.6248 21.375C17.3748 23.125 19.4998 24 21.9998 24ZM21.9998 20.4C20.4998 20.4 19.2248 19.875 18.1748 18.825C17.1248 17.775 16.5998 16.5 16.5998 15C16.5998 13.5 17.1248 12.225 18.1748 11.175C19.2248 10.125 20.4998 9.6 21.9998 9.6C23.4998 9.6 24.7748 10.125 25.8248 11.175C26.8748 12.225 27.3998 13.5 27.3998 15C27.3998 16.5 26.8748 17.775 25.8248 18.825C24.7748 19.875 23.4998 20.4 21.9998 20.4ZM21.9998 30C17.5331 30 13.4581 28.8 9.77481 26.4C6.09147 24 3.18314 20.8333 1.0498 16.9C0.883138 16.6 0.758138 16.2917 0.674805 15.975C0.591471 15.6583 0.549805 15.3333 0.549805 15C0.549805 14.6667 0.591471 14.3417 0.674805 14.025C0.758138 13.7083 0.883138 13.4 1.0498 13.1C3.18314 9.16667 6.09147 6 9.77481 3.6C13.4581 1.2 17.5331 0 21.9998 0C26.4665 0 30.5415 1.2 34.2248 3.6C37.9081 6 40.8165 9.16667 42.9498 13.1C43.1165 13.4 43.2415 13.7083 43.3248 14.025C43.4081 14.3417 43.4498 14.6667 43.4498 15C43.4498 15.3333 43.4081 15.6583 43.3248 15.975C43.2415 16.2917 43.1165 16.6 42.9498 16.9C40.8165 20.8333 37.9081 24 34.2248 26.4C30.5415 28.8 26.4665 30 21.9998 30ZM21.9998 26C25.7665 26 29.2248 25.0083 32.3748 23.025C35.5248 21.0417 37.9331 18.3667 39.5998 15C37.9331 11.6333 35.5248 8.95833 32.3748 6.975C29.2248 4.99167 25.7665 4 21.9998 4C18.2331 4 14.7748 4.99167 11.6248 6.975C8.4748 8.95833 6.06647 11.6333 4.3998 15C6.06647 18.3667 8.4748 21.0417 11.6248 23.025C14.7748 25.0083 18.2331 26 21.9998 26Z"
        fill="black" fill-opacity="0.2" />
    <path
        d="M21.9998 24C24.4998 24 26.6248 23.125 28.3748 21.375C30.1248 19.625 30.9998 17.5 30.9998 15C30.9998 12.5 30.1248 10.375 28.3748 8.625C26.6248 6.875 24.4998 6 21.9998 6C19.4998 6 17.3748 6.875 15.6248 8.625C13.8748 10.375 12.9998 12.5 12.9998 15C12.9998 17.5 13.8748 19.625 15.6248 21.375C17.3748 23.125 19.4998 24 21.9998 24ZM21.9998 20.4C20.4998 20.4 19.2248 19.875 18.1748 18.825C17.1248 17.775 16.5998 16.5 16.5998 15C16.5998 13.5 17.1248 12.225 18.1748 11.175C19.2248 10.125 20.4998 9.6 21.9998 9.6C23.4998 9.6 24.7748 10.125 25.8248 11.175C26.8748 12.225 27.3998 13.5 27.3998 15C27.3998 16.5 26.8748 17.775 25.8248 18.825C24.7748 19.875 23.4998 20.4 21.9998 20.4ZM21.9998 30C17.5331 30 13.4581 28.8 9.77481 26.4C6.09147 24 3.18314 20.8333 1.0498 16.9C0.883138 16.6 0.758138 16.2917 0.674805 15.975C0.591471 15.6583 0.549805 15.3333 0.549805 15C0.549805 14.6667 0.591471 14.3417 0.674805 14.025C0.758138 13.7083 0.883138 13.4 1.0498 13.1C3.18314 9.16667 6.09147 6 9.77481 3.6C13.4581 1.2 17.5331 0 21.9998 0C26.4665 0 30.5415 1.2 34.2248 3.6C37.9081 6 40.8165 9.16667 42.9498 13.1C43.1165 13.4 43.2415 13.7083 43.3248 14.025C43.4081 14.3417 43.4498 14.6667 43.4498 15C43.4498 15.3333 43.4081 15.6583 43.3248 15.975C43.2415 16.2917 43.1165 16.6 42.9498 16.9C40.8165 20.8333 37.9081 24 34.2248 26.4C30.5415 28.8 26.4665 30 21.9998 30ZM21.9998 26C25.7665 26 29.2248 25.0083 32.3748 23.025C35.5248 21.0417 37.9331 18.3667 39.5998 15C37.9331 11.6333 35.5248 8.95833 32.3748 6.975C29.2248 4.99167 25.7665 4 21.9998 4C18.2331 4 14.7748 4.99167 11.6248 6.975C8.4748 8.95833 6.06647 11.6333 4.3998 15C6.06647 18.3667 8.4748 21.0417 11.6248 23.025C14.7748 25.0083 18.2331 26 21.9998 26Z"
        fill="black" fill-opacity="0.2" />
</svg>