<svg xmlns="http://www.w3.org/2000/svg" width="28" height="28" viewBox="0 0 28 28" fill="none">
  <path d="M27.4439 13.1917C26.3454 10.8773 25.0381 8.98985 23.5221 7.52922L21.9321 9.11922C23.2286 10.3583 24.358 11.9792 25.3346 13.998C22.7346 19.3792 19.0439 21.9355 14.0002 21.9355C12.4862 21.9355 11.0917 21.7023 9.81674 21.2361L8.09393 22.9589C9.86476 23.7766 11.8335 24.1855 14.0002 24.1855C20.0064 24.1855 24.4877 21.0573 27.4439 14.8011C27.5628 14.5495 27.6244 14.2747 27.6244 13.9964C27.6244 13.7181 27.5628 13.4433 27.4439 13.1917ZM25.4574 3.17172L24.1252 1.83797C24.102 1.81473 24.0744 1.79629 24.044 1.78371C24.0137 1.77112 23.9812 1.76465 23.9483 1.76465C23.9155 1.76465 23.8829 1.77112 23.8526 1.78371C23.8222 1.79629 23.7946 1.81473 23.7714 1.83797L20.3536 5.25422C18.4692 4.29172 16.3514 3.81047 14.0002 3.81047C7.99393 3.81047 3.51268 6.9386 0.556431 13.1948C0.437604 13.4465 0.375977 13.7213 0.375977 13.9995C0.375977 14.2778 0.437604 14.5526 0.556431 14.8042C1.73747 17.2917 3.15935 19.2856 4.82206 20.7858L1.51518 24.0917C1.46833 24.1386 1.44202 24.2022 1.44202 24.2684C1.44202 24.3347 1.46833 24.3983 1.51518 24.4452L2.84924 25.7792C2.89612 25.8261 2.95969 25.8524 3.02596 25.8524C3.09224 25.8524 3.1558 25.8261 3.20268 25.7792L25.4574 3.52547C25.4806 3.50225 25.4991 3.47468 25.5116 3.44433C25.5242 3.41398 25.5307 3.38145 25.5307 3.3486C25.5307 3.31574 25.5242 3.28321 25.5116 3.25286C25.4991 3.22251 25.4806 3.19494 25.4574 3.17172ZM2.66581 13.998C5.26893 8.61672 8.95955 6.06047 14.0002 6.06047C15.7046 6.06047 17.2542 6.35297 18.6602 6.94766L16.4633 9.14453C15.4229 8.58942 14.2316 8.3834 13.0652 8.55686C11.8988 8.73033 10.819 9.2741 9.98515 10.1079C9.15131 10.9418 8.60754 12.0216 8.43407 13.188C8.26061 14.3544 8.46663 15.5457 9.02174 16.5861L6.41487 19.193C4.97205 17.9195 3.72831 16.1942 2.66581 13.998ZM10.3752 13.998C10.3757 13.4469 10.5063 12.9038 10.7562 12.4126C11.0061 11.9215 11.3683 11.4963 11.8134 11.1714C12.2585 10.8466 12.774 10.6314 13.318 10.5432C13.8619 10.455 14.419 10.4963 14.9439 10.6639L10.5411 15.0667C10.4308 14.7212 10.3748 14.3607 10.3752 13.998Z" fill="#A8A5A8"/>
  <path d="M13.8757 17.5022C13.7676 17.5022 13.661 17.4972 13.5554 17.4875L11.9048 19.1381C12.8976 19.5183 13.9792 19.6028 15.019 19.3814C16.0588 19.1599 17.0122 18.6421 17.7639 17.8903C18.5156 17.1386 19.0335 16.1852 19.2549 15.1455C19.4764 14.1057 19.3919 13.024 19.0117 12.0312L17.361 13.6819C17.3707 13.7875 17.3757 13.8941 17.3757 14.0022C17.376 14.4619 17.2856 14.9171 17.1098 15.3419C16.934 15.7666 16.6762 16.1526 16.3511 16.4776C16.0261 16.8027 15.6402 17.0605 15.2154 17.2363C14.7907 17.4121 14.3354 17.5024 13.8757 17.5022Z" fill="#A8A5A8"/>
</svg>