<svg xmlns="http://www.w3.org/2000/svg" width="35" height="36" viewBox="0 0 35 36" fill="none">
  <mask id="mask0_731_1414" style="mask-type:luminance" maskUnits="userSpaceOnUse" x="0" y="0" width="35" height="36">
    <path d="M35 0.499023H0V35.499H35V0.499023Z" fill="white"/>
  </mask>
  <g mask="url(#mask0_731_1414)">
    <path d="M34.3005 18.397C34.3005 17.1561 34.1892 15.9629 33.9823 14.8174H17.5005V21.5867H26.9186C26.513 23.7742 25.2801 25.6277 23.4267 26.8686V31.2595H29.0823C32.3914 28.2129 34.3005 23.7265 34.3005 18.397Z" fill="#4285F4"/>
    <path d="M17.5005 35.4992C22.2255 35.4992 26.1868 33.9321 29.0822 31.2595L23.4265 26.8686C21.8596 27.9186 19.855 28.5389 17.5005 28.5389C12.9425 28.5389 9.08459 25.4605 7.70839 21.3242H1.86182V25.8583C4.74144 31.5776 10.6596 35.4992 17.5005 35.4992Z" fill="#34A853"/>
    <path d="M7.70787 21.3237C7.35787 20.2737 7.15908 19.1521 7.15908 17.9987C7.15908 16.8453 7.35787 15.7237 7.70787 14.6737V10.1396H1.8613C0.676199 12.5021 0 15.1749 0 17.9987C0 20.8225 0.676199 23.4953 1.8613 25.8578L7.70787 21.3237Z" fill="#FBBC04"/>
    <path d="M17.5005 7.4593C20.0697 7.4593 22.3765 8.34217 24.1902 10.0762L29.2096 5.0569C26.1789 2.2331 22.2175 0.499023 17.5005 0.499023C10.6596 0.499023 4.74144 4.4206 1.86182 10.1399L7.70839 14.674C9.08459 10.5377 12.9425 7.4593 17.5005 7.4593Z" fill="#E94235"/>
  </g>
</svg>