<svg width="50" height="47" viewBox="0 0 50 47" fill="none" xmlns="http://www.w3.org/2000/svg">
    <path
        d="M25 47C24.4167 47 23.8229 46.8892 23.2188 46.6676C22.6146 46.446 22.0833 46.0915 21.625 45.604L17.3125 41.4158C12.8958 37.1169 8.90625 32.8512 5.34375 28.6188C1.78125 24.3864 0 19.7218 0 14.6252C0 10.4592 1.3125 6.9802 3.9375 4.18812C6.5625 1.39604 9.83333 0 13.75 0C15.9583 0 18.0417 0.498586 20 1.49576C21.9583 2.49293 23.625 3.85573 25 5.58416C26.375 3.85573 28.0417 2.49293 30 1.49576C31.9583 0.498586 34.0417 0 36.25 0C40.1667 0 43.4375 1.39604 46.0625 4.18812C48.6875 6.9802 50 10.4592 50 14.6252C50 19.7218 48.2292 24.3975 44.6875 28.652C41.1458 32.9066 37.125 37.1834 32.625 41.4823L28.375 45.604C27.9167 46.0915 27.3854 46.446 26.7812 46.6676C26.1771 46.8892 25.5833 47 25 47ZM22.625 10.9024C21.4167 9.08534 20.125 7.70038 18.75 6.74752C17.375 5.79467 15.7083 5.31825 13.75 5.31825C11.25 5.31825 9.16667 6.20462 7.5 7.97737C5.83333 9.75012 5 11.9661 5 14.6252C5 16.9297 5.77083 19.3784 7.3125 21.971C8.85417 24.5636 10.6979 27.0787 12.8438 29.5163C14.9896 31.9538 17.1979 34.2362 19.4688 36.3635C21.7396 38.4908 23.5833 40.2414 25 41.6153C26.4167 40.2414 28.2604 38.4908 30.5312 36.3635C32.8021 34.2362 35.0104 31.9538 37.1562 29.5163C39.3021 27.0787 41.1458 24.5636 42.6875 21.971C44.2292 19.3784 45 16.9297 45 14.6252C45 11.9661 44.1667 9.75012 42.5 7.97737C40.8333 6.20462 38.75 5.31825 36.25 5.31825C34.2917 5.31825 32.625 5.79467 31.25 6.74752C29.875 7.70038 28.5833 9.08534 27.375 10.9024C27.0833 11.3456 26.7292 11.678 26.3125 11.8996C25.8958 12.1212 25.4583 12.232 25 12.232C24.5417 12.232 24.1042 12.1212 23.6875 11.8996C23.2708 11.678 22.9167 11.3456 22.625 10.9024Z"
        fill="white" id="heart-outline" />
    <path
        d="M18.5 5L25 11L29 6.5L33.5 4H39L43.5 6.5L46 11V17.5L41 27L32 37.5L25 43.5L23.5 42.5L20 39L15.5 34.5L12 30.5L7.5 25L5 21L4 13L6.5 7.5L12 4L18.5 5Z"
        fill="#F04452" stroke="#F04452" id="heart-fill" />
</svg>