<svg width="28" height="24" viewBox="0 0 28 24" fill="none" xmlns="http://www.w3.org/2000/svg">
    <path
        d="M13.9772 0.444458L26.8062 10.7251C26.9158 10.8079 27.0082 10.9126 27.0779 11.0328C27.1476 11.1531 27.1932 11.2865 27.212 11.4252C27.2308 11.5639 27.2224 11.7051 27.1874 11.8405C27.1523 11.9758 27.0912 12.1025 27.0078 12.2131C26.9244 12.3237 26.8203 12.416 26.7017 12.4844C26.5831 12.5529 26.4524 12.5961 26.3173 12.6116C26.1821 12.6271 26.0454 12.6145 25.9151 12.5747C25.7847 12.5348 25.6635 12.4684 25.5585 12.3794L24.4872 11.5215V22.7299C24.4872 23.0078 24.38 23.2743 24.1893 23.4709C23.9985 23.6674 23.7398 23.7778 23.4701 23.7778C23.2003 23.7778 22.9416 23.6674 22.7509 23.4709C22.5601 23.2743 22.453 23.0078 22.453 22.7299V9.89096L13.9772 3.10055L5.50143 9.89096V22.7299C5.50143 23.0078 5.39427 23.2743 5.20353 23.4709C5.01278 23.6674 4.75408 23.7778 4.48433 23.7778C4.21458 23.7778 3.95588 23.6674 3.76514 23.4709C3.5744 23.2743 3.46724 23.0078 3.46724 22.7299V11.5215L2.3959 12.3794C2.18232 12.5407 1.91608 12.6099 1.65378 12.5722C1.39147 12.5344 1.15381 12.3928 0.991303 12.1773C0.828801 11.9618 0.754284 11.6896 0.783595 11.4184C0.812907 11.1472 0.943735 10.8985 1.14826 10.7251L3.46724 8.86681V5.26482C3.46724 4.30075 4.22667 3.51831 5.16239 3.51831H6.51852C6.93541 3.5184 7.33764 3.67675 7.64836 3.96311C7.95907 4.24947 8.15647 4.64375 8.20283 5.07061L13.9772 0.444458ZM6.17949 6.55723V5.61412H5.50143V7.08118L6.17949 6.55723Z"
        fill="#D2D1D2" />
    <path
        d="M11.8458 15.0667C11.7506 15.0667 11.6593 15.1049 11.592 15.173C11.5247 15.2411 11.4869 15.3334 11.4869 15.4297V22.6889C11.4869 22.9777 11.3734 23.2547 11.1714 23.4589C10.9695 23.6631 10.6955 23.7778 10.4099 23.7778C10.1243 23.7778 9.85039 23.6631 9.64843 23.4589C9.44647 23.2547 9.33301 22.9777 9.33301 22.6889V15.4297C9.33301 14.0272 10.4588 12.8889 11.8458 12.8889H16.1535C17.5406 12.8889 18.6663 14.0272 18.6663 15.4297V22.6889C18.6663 22.9777 18.5529 23.2547 18.3509 23.4589C18.149 23.6631 17.875 23.7778 17.5894 23.7778C17.3038 23.7778 17.0299 23.6631 16.8279 23.4589C16.626 23.2547 16.5125 22.9777 16.5125 22.6889V15.4297C16.5125 15.3334 16.4747 15.2411 16.4074 15.173C16.34 15.1049 16.2487 15.0667 16.1535 15.0667H11.8458Z"
        fill="#D2D1D2" />
</svg>