<svg width="34" height="30" viewBox="0 0 34 30" fill="none" xmlns="http://www.w3.org/2000/svg">
    <path d="M16.9713 0L33.4656 13.218C33.6066 13.3245 33.7254 13.459 33.815 13.6136C33.9046 13.7682 33.9633 13.9398 33.9874 14.1181C34.0116 14.2965 34.0008 14.478 33.9557 14.652C33.9107 14.826 33.8322 14.9889 33.7249 15.1311C33.6177 15.2733 33.4838 15.3919 33.3313 15.4799C33.1788 15.5679 33.0108 15.6235 32.837 15.6435C32.6633 15.6634 32.4875 15.6473 32.3199 15.596C32.1524 15.5447 31.9965 15.4593 31.8615 15.3449L30.4841 14.2419V28.6527C30.4841 29.01 30.3463 29.3527 30.1011 29.6054C29.8558 29.8581 29.5232 30 29.1764 30C28.8296 30 28.4969 29.8581 28.2517 29.6054C28.0065 29.3527 27.8687 29.01 27.8687 28.6527V12.1455L16.9713 3.41497L6.07382 12.1455V28.6527C6.07382 29.01 5.93604 29.3527 5.6908 29.6054C5.44557 29.8581 5.11295 30 4.76613 30C4.41931 30 4.08669 29.8581 3.84145 29.6054C3.59621 29.3527 3.45843 29.01 3.45843 28.6527V14.2419L2.081 15.3449C1.8064 15.5524 1.46409 15.6413 1.12684 15.5928C0.789597 15.5443 0.484022 15.3621 0.275091 15.0851C0.0661594 14.8081 -0.0296487 14.458 0.00803752 14.1093C0.0457238 13.7606 0.213932 13.4409 0.476897 13.218L3.45843 10.8287V6.1976C3.45843 4.95808 4.43484 3.9521 5.63792 3.9521H7.38151C7.91751 3.9522 8.43467 4.1558 8.83416 4.52398C9.23365 4.89216 9.48745 5.3991 9.54705 5.9479L16.9713 0ZM6.94561 7.85928V6.64671H6.07382V8.53293L6.94561 7.85928Z" fill="white"/>
    <path d="M14.2308 18.8C14.1084 18.8 13.991 18.8492 13.9044 18.9367C13.8179 19.0242 13.7692 19.1429 13.7692 19.2667V28.6C13.7692 28.9713 13.6234 29.3274 13.3637 29.59C13.104 29.8525 12.7518 30 12.3846 30C12.0174 30 11.6652 29.8525 11.4055 29.59C11.1459 29.3274 11 28.9713 11 28.6V19.2667C11 17.4635 12.4474 16 14.2308 16H19.7692C21.5526 16 23 17.4635 23 19.2667V28.6C23 28.9713 22.8541 29.3274 22.5945 29.59C22.3348 29.8525 21.9826 30 21.6154 30C21.2482 30 20.896 29.8525 20.6363 29.59C20.3766 29.3274 20.2308 28.9713 20.2308 28.6V19.2667C20.2308 19.1429 20.1821 19.0242 20.0956 18.9367C20.009 18.8492 19.8916 18.8 19.7692 18.8H14.2308Z" fill="white"/>
</svg>
