<svg width="28" height="24" viewBox="0 0 28 24" fill="none" xmlns="http://www.w3.org/2000/svg">
<path d="M13.9777 0.444336L26.8066 10.725C26.9163 10.8078 27.0087 10.9124 27.0784 11.0327C27.1481 11.1529 27.1937 11.2864 27.2125 11.4251C27.2313 11.5638 27.2229 11.705 27.1879 11.8403C27.1528 11.9757 27.0917 12.1024 27.0083 12.213C26.9249 12.3236 26.8208 12.4158 26.7022 12.4843C26.5836 12.5527 26.4529 12.596 26.3177 12.6115C26.1826 12.627 26.0459 12.6144 25.9156 12.5745C25.7852 12.5347 25.664 12.4683 25.559 12.3793L24.4877 11.5214V22.7298C24.4877 23.0077 24.3805 23.2742 24.1898 23.4707C23.999 23.6673 23.7403 23.7777 23.4706 23.7777C23.2008 23.7777 22.9421 23.6673 22.7514 23.4707C22.5606 23.2742 22.4535 23.0077 22.4535 22.7298V9.89084L13.9777 3.10042L5.50191 9.89084V22.7298C5.50191 23.0077 5.39476 23.2742 5.20401 23.4707C5.01327 23.6673 4.75457 23.7777 4.48482 23.7777C4.21507 23.7777 3.95637 23.6673 3.76563 23.4707C3.57488 23.2742 3.46773 23.0077 3.46773 22.7298V11.5214L2.39639 12.3793C2.18281 12.5406 1.91657 12.6098 1.65426 12.5721C1.39196 12.5343 1.15429 12.3927 0.991792 12.1772C0.829289 11.9617 0.754772 11.6894 0.784083 11.4182C0.813395 11.1471 0.944223 10.8983 1.14875 10.725L3.46773 8.86669V5.2647C3.46773 4.30062 4.22716 3.51819 5.16288 3.51819H6.51901C6.93589 3.51827 7.33813 3.67663 7.64885 3.96299C7.95956 4.24935 8.15696 4.64363 8.20332 5.07048L13.9777 0.444336ZM6.17998 6.55711V5.614H5.50191V7.08106L6.17998 6.55711Z" fill="#D2D1D2"/>
<path d="M11.8463 15.0664C11.7511 15.0664 11.6598 15.1047 11.5925 15.1728C11.5252 15.2408 11.4873 15.3331 11.4873 15.4294V22.6887C11.4873 22.9775 11.3739 23.2544 11.1719 23.4586C10.97 23.6628 10.696 23.7776 10.4104 23.7776C10.1248 23.7776 9.85088 23.6628 9.64892 23.4586C9.44696 23.2544 9.3335 22.9775 9.3335 22.6887V15.4294C9.3335 14.0269 10.4592 12.8887 11.8463 12.8887H16.154C17.5411 12.8887 18.6668 14.0269 18.6668 15.4294V22.6887C18.6668 22.9775 18.5534 23.2544 18.3514 23.4586C18.1494 23.6628 17.8755 23.7776 17.5899 23.7776C17.3043 23.7776 17.0304 23.6628 16.8284 23.4586C16.6264 23.2544 16.513 22.9775 16.513 22.6887V15.4294C16.513 15.3331 16.4752 15.2408 16.4078 15.1728C16.3405 15.1047 16.2492 15.0664 16.154 15.0664H11.8463Z" fill="#D2D1D2"/>
</svg>
