<svg width="27" height="48" viewBox="0 0 27 48" fill="none" xmlns="http://www.w3.org/2000/svg">
    <path
        d="M7.3125 23.9698L25.6875 42.3448C26.3125 42.9698 26.6146 43.6989 26.5938 44.5323C26.5729 45.3656 26.25 46.0948 25.625 46.7198C25 47.3448 24.2708 47.6573 23.4375 47.6573C22.6042 47.6573 21.875 47.3448 21.25 46.7198L2 27.5323C1.5 27.0323 1.125 26.4698 0.875 25.8448C0.625 25.2198 0.5 24.5948 0.5 23.9698C0.5 23.3448 0.625 22.7198 0.875 22.0948C1.125 21.4698 1.5 20.9073 2 20.4073L21.25 1.15726C21.875 0.532258 22.6146 0.230175 23.4688 0.251008C24.3229 0.271841 25.0625 0.594758 25.6875 1.21976C26.3125 1.84476 26.625 2.57393 26.625 3.40726C26.625 4.24059 26.3125 4.96976 25.6875 5.59476L7.3125 23.9698Z"
        fill="white" fill-opacity="1" />
</svg>