<svg width="24" height="24" viewBox="0 0 24 24" fill="none" xmlns="http://www.w3.org/2000/svg">
    <path
        d="M4.22222 19.7778H5.80556L16.6667 8.91667L15.0833 7.33333L4.22222 18.1944V19.7778ZM3.11111 22C2.7963 22 2.53241 21.8935 2.31944 21.6806C2.10648 21.4676 2 21.2037 2 20.8889V18.1944C2 17.8981 2.05556 17.6157 2.16667 17.3472C2.27778 17.0787 2.43519 16.8426 2.63889 16.6389L16.6667 2.63889C16.8889 2.43519 17.1343 2.27778 17.4028 2.16667C17.6713 2.05556 17.9537 2 18.25 2C18.5463 2 18.8333 2.05556 19.1111 2.16667C19.3889 2.27778 19.6296 2.44444 19.8333 2.66667L21.3611 4.22222C21.5833 4.42593 21.7454 4.66667 21.8472 4.94444C21.9491 5.22222 22 5.5 22 5.77778C22 6.07407 21.9491 6.35648 21.8472 6.625C21.7454 6.89352 21.5833 7.13889 21.3611 7.36111L7.36111 21.3611C7.15741 21.5648 6.9213 21.7222 6.65278 21.8333C6.38426 21.9444 6.10185 22 5.80556 22H3.11111ZM15.8611 8.13889L15.0833 7.33333L16.6667 8.91667L15.8611 8.13889Z"
        fill="white" />
</svg>