<svg width="40" height="40" viewBox="0 0 40 40" fill="none" xmlns="http://www.w3.org/2000/svg">
    <path
        d="M4.44444 35.5556H7.61111L29.3333 13.8333L26.1667 10.6667L4.44444 32.3889V35.5556ZM2.22222 40C1.59259 40 1.06481 39.787 0.638889 39.3611C0.212963 38.9352 0 38.4074 0 37.7778V32.3889C0 31.7963 0.111111 31.2315 0.333333 30.6944C0.555556 30.1574 0.87037 29.6852 1.27778 29.2778L29.3333 1.27778C29.7778 0.87037 30.2685 0.555556 30.8056 0.333333C31.3426 0.111111 31.9074 0 32.5 0C33.0926 0 33.6667 0.111111 34.2222 0.333333C34.7778 0.555556 35.2593 0.888889 35.6667 1.33333L38.7222 4.44444C39.1667 4.85185 39.4907 5.33333 39.6944 5.88889C39.8981 6.44444 40 7 40 7.55556C40 8.14815 39.8981 8.71296 39.6944 9.25C39.4907 9.78704 39.1667 10.2778 38.7222 10.7222L10.7222 38.7222C10.3148 39.1296 9.84259 39.4444 9.30556 39.6667C8.76852 39.8889 8.2037 40 7.61111 40H2.22222ZM27.7222 12.2778L26.1667 10.6667L29.3333 13.8333L27.7222 12.2778Z"
        fill="white" />
</svg>