<svg width="28" height="28" viewBox="0 0 28 28" fill="none" xmlns="http://www.w3.org/2000/svg">
    <path
        d="M11.787 3.23673L19.2677 10.7175H22.9012C23.115 10.7175 23.3153 10.7575 23.5023 10.8377C23.6894 10.9178 23.8541 11.0292 23.9966 11.1716L24.6111 11.7861C24.9139 12.0889 25.0653 12.4451 25.0653 12.8548C25.0653 13.2645 24.9139 13.6207 24.6111 13.9235L20.3364 18.1982L26.5881 24.4499C26.8909 24.7527 27.0423 25.109 27.0423 25.5186C27.0423 25.9283 26.8909 26.2845 26.5881 26.5873C26.2854 26.8901 25.9291 27.0415 25.5195 27.0415C25.1098 27.0415 24.7536 26.8901 24.4508 26.5873L18.199 20.3355L13.9243 24.6102C13.6216 24.913 13.2653 25.0644 12.8557 25.0644C12.446 25.0644 12.0898 24.913 11.787 24.6102L11.1725 23.9957C11.03 23.8533 10.9187 23.6885 10.8385 23.5015C10.7584 23.3145 10.7183 23.1141 10.7183 22.9004V19.2669L3.23759 11.7861C2.9348 12.0889 2.57858 12.2403 2.16892 12.2403C1.75926 12.2403 1.40303 12.0889 1.10024 11.7861C0.79745 11.4833 0.646054 11.1271 0.646054 10.7175C0.646054 10.3078 0.79745 9.95157 1.10024 9.64878L9.64964 1.09938C9.95243 0.796589 10.3087 0.645193 10.7183 0.645193C11.128 0.645193 11.4842 0.796589 11.787 1.09938C12.0898 1.40217 12.2412 1.7584 12.2412 2.16806C12.2412 2.57771 12.0898 2.93394 11.787 3.23673ZM13.764 20.4958L20.4967 13.7632H18.0387L9.64964 5.37408L5.37494 9.64878L13.764 18.0379V20.4958Z"
        fill="#7E37F9" />
</svg>