<svg width="39" height="28" viewBox="0 0 39 28" fill="none" xmlns="http://www.w3.org/2000/svg">
    <path
        d="M30.375 16.4988H2.5C1.79167 16.4988 1.19792 16.2592 0.71875 15.7801C0.239583 15.3009 0 14.7071 0 13.9988C0 13.2905 0.239583 12.6967 0.71875 12.2176C1.19792 11.7384 1.79167 11.4988 2.5 11.4988H30.375L23.25 4.37381C22.75 3.87381 22.5104 3.29048 22.5312 2.62381C22.5521 1.95714 22.7917 1.37381 23.25 0.873809C23.75 0.373809 24.3438 0.113392 25.0312 0.0925586C25.7188 0.0717253 26.3125 0.311309 26.8125 0.811309L38.25 12.2488C38.5 12.4988 38.6771 12.7696 38.7812 13.0613C38.8854 13.353 38.9375 13.6655 38.9375 13.9988C38.9375 14.3321 38.8854 14.6446 38.7812 14.9363C38.6771 15.228 38.5 15.4988 38.25 15.7488L26.8125 27.1863C26.3125 27.6863 25.7188 27.9259 25.0312 27.9051C24.3438 27.8842 23.75 27.6238 23.25 27.1238C22.7917 26.6238 22.5521 26.0405 22.5312 25.3738C22.5104 24.7071 22.75 24.1238 23.25 23.6238L30.375 16.4988Z"
        fill="#965AFF" />
</svg>