<svg width="50" height="47" viewBox="0 0 50 47" fill="none" xmlns="http://www.w3.org/2000/svg">
    <path
        d="M10 40L4.25 45.75C3.45833 46.5417 2.55208 46.7188 1.53125 46.2812C0.510417 45.8438 0 45.0625 0 43.9375V5C0 3.625 0.489583 2.44792 1.46875 1.46875C2.44792 0.489583 3.625 0 5 0H45C46.375 0 47.5521 0.489583 48.5312 1.46875C49.5104 2.44792 50 3.625 50 5V35C50 36.375 49.5104 37.5521 48.5312 38.5312C47.5521 39.5104 46.375 40 45 40H10ZM7.875 35H45V5H5V37.8125L7.875 35Z"
        fill="#965AFF" />
</svg>