<svg width="27" height="48" viewBox="0 0 27 48" fill="none" xmlns="http://www.w3.org/2000/svg">
    <path
        d="M19.7823 24L1.40726 5.625C0.782258 5 0.480175 4.26042 0.501008 3.40625C0.521841 2.55208 0.844758 1.8125 1.46976 1.1875C2.09476 0.5625 2.83434 0.25 3.68851 0.25C4.54267 0.25 5.28226 0.5625 5.90726 1.1875L25.0948 20.4375C25.5948 20.9375 25.9698 21.5 26.2198 22.125C26.4698 22.75 26.5948 23.375 26.5948 24C26.5948 24.625 26.4698 25.25 26.2198 25.875C25.9698 26.5 25.5948 27.0625 25.0948 27.5625L5.84476 46.8125C5.21976 47.4375 4.49059 47.7396 3.65726 47.7188C2.82392 47.6979 2.09476 47.375 1.46976 46.75C0.844758 46.125 0.532258 45.3854 0.532258 44.5312C0.532258 43.6771 0.844758 42.9375 1.46976 42.3125L19.7823 24Z"
        fill="white" fill-opacity="1" />
</svg>