<svg width="39" height="40" viewBox="0 0 39 40" fill="none" xmlns="http://www.w3.org/2000/svg">
    <path
        d="M16.69 40C15.79 40 15.015 39.7 14.365 39.1C13.715 38.5 13.3233 37.7667 13.19 36.9L12.74 33.6C12.3067 33.4333 11.8983 33.2333 11.515 33C11.1317 32.7667 10.7567 32.5167 10.39 32.25L7.29 33.55C6.45667 33.9167 5.62333 33.95 4.79 33.65C3.95667 33.35 3.30667 32.8167 2.84 32.05L0.49 27.95C0.0233333 27.1833 -0.11 26.3667 0.09 25.5C0.29 24.6333 0.74 23.9167 1.44 23.35L4.09 21.35C4.05667 21.1167 4.04 20.8917 4.04 20.675V19.325C4.04 19.1083 4.05667 18.8833 4.09 18.65L1.44 16.65C0.74 16.0833 0.29 15.3667 0.09 14.5C-0.11 13.6333 0.0233333 12.8167 0.49 12.05L2.84 7.95C3.30667 7.18333 3.95667 6.65 4.79 6.35C5.62333 6.05 6.45667 6.08333 7.29 6.45L10.39 7.75C10.7567 7.48333 11.14 7.23333 11.54 7C11.94 6.76667 12.34 6.56667 12.74 6.4L13.19 3.1C13.3233 2.23333 13.715 1.5 14.365 0.9C15.015 0.3 15.79 0 16.69 0H21.39C22.29 0 23.065 0.3 23.715 0.9C24.365 1.5 24.7567 2.23333 24.89 3.1L25.34 6.4C25.7733 6.56667 26.1817 6.76667 26.565 7C26.9483 7.23333 27.3233 7.48333 27.69 7.75L30.79 6.45C31.6233 6.08333 32.4567 6.05 33.29 6.35C34.1233 6.65 34.7733 7.18333 35.24 7.95L37.59 12.05C38.0567 12.8167 38.19 13.6333 37.99 14.5C37.79 15.3667 37.34 16.0833 36.64 16.65L33.99 18.65C34.0233 18.8833 34.04 19.1083 34.04 19.325V20.675C34.04 20.8917 34.0067 21.1167 33.94 21.35L36.59 23.35C37.29 23.9167 37.74 24.6333 37.94 25.5C38.14 26.3667 38.0067 27.1833 37.54 27.95L35.14 32.05C34.6733 32.8167 34.0233 33.35 33.19 33.65C32.3567 33.95 31.5233 33.9167 30.69 33.55L27.69 32.25C27.3233 32.5167 26.94 32.7667 26.54 33C26.14 33.2333 25.74 33.4333 25.34 33.6L24.89 36.9C24.7567 37.7667 24.365 38.5 23.715 39.1C23.065 39.7 22.29 40 21.39 40H16.69ZM17.04 36H20.99L21.69 30.7C22.7233 30.4333 23.6817 30.0417 24.565 29.525C25.4483 29.0083 26.2567 28.3833 26.99 27.65L31.94 29.7L33.89 26.3L29.59 23.05C29.7567 22.5833 29.8733 22.0917 29.94 21.575C30.0067 21.0583 30.04 20.5333 30.04 20C30.04 19.4667 30.0067 18.9417 29.94 18.425C29.8733 17.9083 29.7567 17.4167 29.59 16.95L33.89 13.7L31.94 10.3L26.99 12.4C26.2567 11.6333 25.4483 10.9917 24.565 10.475C23.6817 9.95833 22.7233 9.56667 21.69 9.3L21.04 4H17.09L16.39 9.3C15.3567 9.56667 14.3983 9.95833 13.515 10.475C12.6317 10.9917 11.8233 11.6167 11.09 12.35L6.14 10.3L4.19 13.7L8.49 16.9C8.32333 17.4 8.20667 17.9 8.14 18.4C8.07333 18.9 8.04 19.4333 8.04 20C8.04 20.5333 8.07333 21.05 8.14 21.55C8.20667 22.05 8.32333 22.55 8.49 23.05L4.19 26.3L6.14 29.7L11.09 27.6C11.8233 28.3667 12.6317 29.0083 13.515 29.525C14.3983 30.0417 15.3567 30.4333 16.39 30.7L17.04 36ZM19.14 27C21.0733 27 22.7233 26.3167 24.09 24.95C25.4567 23.5833 26.14 21.9333 26.14 20C26.14 18.0667 25.4567 16.4167 24.09 15.05C22.7233 13.6833 21.0733 13 19.14 13C17.1733 13 15.515 13.6833 14.165 15.05C12.815 16.4167 12.14 18.0667 12.14 20C12.14 21.9333 12.815 23.5833 14.165 24.95C15.515 26.3167 17.1733 27 19.14 27Z"
        fill="#965AFF" />
</svg>