<svg width="48" height="48" viewBox="0 0 48 48" fill="none" xmlns="http://www.w3.org/2000/svg">
    <g id="shuffle-icon">
        <path id="Vector"
            d="M11.9519 33.9997L15.9206 37.7997C16.3383 38.1997 16.5385 38.6664 16.5211 39.1997C16.5037 39.7331 16.2861 40.1997 15.8684 40.5997C15.4506 40.9664 14.9632 41.1581 14.4062 41.1747C13.8492 41.1914 13.3618 40.9997 12.9441 40.5997L5.42451 33.3997C5.21563 33.1997 5.06768 32.9831 4.98065 32.7497C4.89361 32.5164 4.8501 32.2664 4.8501 31.9997C4.8501 31.7331 4.89361 31.4831 4.98065 31.2497C5.06768 31.0164 5.21563 30.7997 5.42451 30.5997L12.9441 23.3997C13.327 23.0331 13.8057 22.8497 14.3801 22.8497C14.9545 22.8497 15.4506 23.0331 15.8684 23.3997C16.2861 23.7997 16.495 24.2747 16.495 24.8247C16.495 25.3747 16.2861 25.8497 15.8684 26.2497L11.9519 29.9997H41.5603C42.1521 29.9997 42.6482 30.1914 43.0485 30.5747C43.4489 30.9581 43.6491 31.4331 43.6491 31.9997C43.6491 32.5664 43.4489 33.0414 43.0485 33.4247C42.6482 33.8081 42.1521 33.9997 41.5603 33.9997H11.9519ZM37.7483 17.9997H8.13991C7.5481 17.9997 7.05201 17.8081 6.65166 17.4247C6.25132 17.0414 6.05114 16.5664 6.05114 15.9997C6.05114 15.4331 6.25132 14.9581 6.65166 14.5747C7.05201 14.1914 7.5481 13.9997 8.13991 13.9997H37.7483L33.7796 10.1997C33.3618 9.79973 33.1617 9.33306 33.1791 8.79973C33.1965 8.2664 33.4141 7.79973 33.8318 7.39973C34.2496 7.03306 34.737 6.8414 35.294 6.82473C35.851 6.80806 36.3383 6.99973 36.7561 7.39973L44.2757 14.5997C44.4846 14.7997 44.6325 15.0164 44.7195 15.2497C44.8066 15.4831 44.8501 15.7331 44.8501 15.9997C44.8501 16.2664 44.8066 16.5164 44.7195 16.7497C44.6325 16.9831 44.4846 17.1997 44.2757 17.3997L36.7561 24.5997C36.3732 24.9664 35.8945 25.1497 35.3201 25.1497C34.7457 25.1497 34.2496 24.9664 33.8318 24.5997C33.4141 24.1997 33.2052 23.7247 33.2052 23.1747C33.2052 22.6247 33.4141 22.1497 33.8318 21.7497L37.7483 17.9997Z"
            fill="#FFFFFF" />
    </g>
</svg>