<svg width="683" height="106" viewBox="0 0 683 106" fill="none" xmlns="http://www.w3.org/2000/svg">
    <path fill-rule="evenodd" clip-rule="evenodd"
        d="M682.657 49.9048C682.671 50.5031 682.671 51.2105 682.671 52.6253C682.671 54.0401 682.671 54.7475 682.657 55.3457C682.018 82.6305 660.051 104.597 632.766 105.236C632.168 105.251 631.46 105.251 630.046 105.251H69.9275C68.5127 105.251 67.8053 105.251 67.207 105.236C58.8601 105.041 51.0109 102.849 44.1177 99.1204C37.2025 103.023 29.2159 105.25 20.7091 105.25H0.268555V104.132C8.77585 96.9905 14.7378 86.9285 16.6537 75.4469C17.3042 71.5488 17.3042 66.8844 17.3042 57.5557H17.4152C17.3667 56.8231 17.3336 56.0864 17.3163 55.3457C17.3022 54.7475 17.3022 54.0401 17.3022 52.6253C17.3022 51.2105 17.3022 50.5031 17.3163 49.9048C17.9554 22.62 39.9222 0.653127 67.207 0.0140132C67.8053 0 68.5127 0 69.9274 0H630.046C631.46 0 632.168 0 632.766 0.0140132C660.051 0.653127 682.018 22.62 682.657 49.9048Z"
        fill="#D2D1D2" />
</svg>