<svg width="24" height="24" viewBox="0 0 24 24" fill="none" xmlns="http://www.w3.org/2000/svg">
    <path
        d="M6.44466 22C5.83355 22 5.3104 21.7824 4.87522 21.3472C4.44003 20.912 4.22244 20.3889 4.22244 19.7778V5.33333C3.90762 5.33333 3.64374 5.22685 3.43077 5.01389C3.21781 4.80093 3.11133 4.53704 3.11133 4.22222C3.11133 3.90741 3.21781 3.64352 3.43077 3.43056C3.64374 3.21759 3.90762 3.11111 4.22244 3.11111H8.66688C8.66688 2.7963 8.77337 2.53241 8.98633 2.31944C9.19929 2.10648 9.46318 2 9.778 2H14.2224C14.5373 2 14.8011 2.10648 15.0141 2.31944C15.2271 2.53241 15.3336 2.7963 15.3336 3.11111H19.778C20.0928 3.11111 20.3567 3.21759 20.5697 3.43056C20.7826 3.64352 20.8891 3.90741 20.8891 4.22222C20.8891 4.53704 20.7826 4.80093 20.5697 5.01389C20.3567 5.22685 20.0928 5.33333 19.778 5.33333V19.7778C19.778 20.3889 19.5604 20.912 19.1252 21.3472C18.69 21.7824 18.1669 22 17.5558 22H6.44466ZM17.5558 5.33333H6.44466V19.7778H17.5558V5.33333ZM9.778 17.5556C10.0928 17.5556 10.3567 17.4491 10.5697 17.2361C10.7826 17.0231 10.8891 16.7593 10.8891 16.4444V8.66667C10.8891 8.35185 10.7826 8.08796 10.5697 7.875C10.3567 7.66204 10.0928 7.55556 9.778 7.55556C9.46318 7.55556 9.19929 7.66204 8.98633 7.875C8.77337 8.08796 8.66688 8.35185 8.66688 8.66667V16.4444C8.66688 16.7593 8.77337 17.0231 8.98633 17.2361C9.19929 17.4491 9.46318 17.5556 9.778 17.5556ZM14.2224 17.5556C14.5373 17.5556 14.8011 17.4491 15.0141 17.2361C15.2271 17.0231 15.3336 16.7593 15.3336 16.4444V8.66667C15.3336 8.35185 15.2271 8.08796 15.0141 7.875C14.8011 7.66204 14.5373 7.55556 14.2224 7.55556C13.9076 7.55556 13.6437 7.66204 13.4308 7.875C13.2178 8.08796 13.1113 8.35185 13.1113 8.66667V16.4444C13.1113 16.7593 13.2178 17.0231 13.4308 17.2361C13.6437 17.4491 13.9076 17.5556 14.2224 17.5556Z"
        fill="white" />
</svg>