<svg width="36" height="36" viewBox="0 0 36 36" fill="none" xmlns="http://www.w3.org/2000/svg">
<g clip-path="url(#clip0_1710_10342)">
<path d="M18 0C8.05982 0 0 8.05982 0 18C0 27.9402 8.05982 36 18 36C27.9402 36 36 27.9402 36 18C36 8.05982 27.9402 0 18 0ZM18 32.9464C9.74732 32.9464 3.05357 26.2527 3.05357 18C3.05357 9.74732 9.74732 3.05357 18 3.05357C26.2527 3.05357 32.9464 9.74732 32.9464 18C32.9464 26.2527 26.2527 32.9464 18 32.9464Z" fill="#F04452"/>
<path d="M16.0713 25.0714C16.0713 25.5829 16.2745 26.0735 16.6362 26.4351C16.9978 26.7968 17.4884 27 17.9999 27C18.5113 27 19.0019 26.7968 19.3636 26.4351C19.7252 26.0735 19.9284 25.5829 19.9284 25.0714C19.9284 24.5599 19.7252 24.0694 19.3636 23.7077C19.0019 23.346 18.5113 23.1429 17.9999 23.1429C17.4884 23.1429 16.9978 23.346 16.6362 23.7077C16.2745 24.0694 16.0713 24.5599 16.0713 25.0714ZM17.0356 20.5714H18.9641C19.1409 20.5714 19.2856 20.4268 19.2856 20.25V9.32143C19.2856 9.14464 19.1409 9 18.9641 9H17.0356C16.8588 9 16.7141 9.14464 16.7141 9.32143V20.25C16.7141 20.4268 16.8588 20.5714 17.0356 20.5714Z" fill="#F04452"/>
</g>
<defs>
<clipPath id="clip0_1710_10342">
<rect width="36" height="36" fill="white"/>
</clipPath>
</defs>
</svg>
