<svg width="36" height="36" viewBox="0 0 36 36" fill="none" xmlns="http://www.w3.org/2000/svg">
    <g clip-path="url(#clip0_2017_2688)">
        <path
            d="M18 0C8.05982 0 0 8.05982 0 18C0 27.9402 8.05982 36 18 36C27.9402 36 36 27.9402 36 18C36 8.05982 27.9402 0 18 0ZM18 32.9464C9.74732 32.9464 3.05357 26.2527 3.05357 18C3.05357 9.74732 9.74732 3.05357 18 3.05357C26.2527 3.05357 32.9464 9.74732 32.9464 18C32.9464 26.2527 26.2527 32.9464 18 32.9464Z"
            fill="#F04452" />
        <path
            d="M16.0712 25.0714C16.0712 25.5829 16.2744 26.0735 16.6361 26.4351C16.9977 26.7968 17.4883 27 17.9998 27C18.5113 27 19.0018 26.7968 19.3635 26.4351C19.7252 26.0735 19.9283 25.5829 19.9283 25.0714C19.9283 24.5599 19.7252 24.0694 19.3635 23.7077C19.0018 23.346 18.5113 23.1429 17.9998 23.1429C17.4883 23.1429 16.9977 23.346 16.6361 23.7077C16.2744 24.0694 16.0712 24.5599 16.0712 25.0714ZM17.0355 20.5714H18.9641C19.1408 20.5714 19.2855 20.4268 19.2855 20.25V9.32143C19.2855 9.14464 19.1408 9 18.9641 9H17.0355C16.8587 9 16.7141 9.14464 16.7141 9.32143V20.25C16.7141 20.4268 16.8587 20.5714 17.0355 20.5714Z"
            fill="#F04452" />
    </g>
    <defs>
        <clipPath id="clip0_2017_2688">
            <rect width="36" height="36" fill="white" />
        </clipPath>
    </defs>
</svg>