<svg width="26" height="26" viewBox="0 0 26 26" fill="none" xmlns="http://www.w3.org/2000/svg">
    <g id="Icon /User">
        <path id="Vector"
            d="M22.6669 20.0166C22.1406 18.7699 21.3768 17.6374 20.418 16.6823C19.4622 15.7245 18.33 14.9608 17.0838 14.4335C17.0726 14.4279 17.0615 14.4251 17.0503 14.4195C18.7886 13.1639 19.9186 11.1187 19.9186 8.81125C19.9186 4.9887 16.8215 1.8916 12.999 1.8916C9.17641 1.8916 6.07931 4.9887 6.07931 8.81125C6.07931 11.1187 7.20933 13.1639 8.94761 14.4223C8.93645 14.4279 8.92529 14.4307 8.91413 14.4362C7.66413 14.9636 6.54248 15.7197 5.57987 16.6851C4.62203 17.641 3.85834 18.7732 3.33098 20.0194C2.81291 21.2394 2.5335 22.5474 2.50788 23.8726C2.50714 23.9024 2.51236 23.932 2.52324 23.9598C2.53413 23.9875 2.55045 24.0128 2.57125 24.0341C2.59206 24.0554 2.61692 24.0724 2.64437 24.0839C2.67182 24.0955 2.70131 24.1014 2.7311 24.1014H4.4052C4.52797 24.1014 4.62563 24.0038 4.62842 23.8838C4.68422 21.7298 5.54918 19.7125 7.07819 18.1835C8.66023 16.6014 10.7612 15.7309 12.999 15.7309C15.2367 15.7309 17.3377 16.6014 18.9197 18.1835C20.4487 19.7125 21.3137 21.7298 21.3695 23.8838C21.3723 24.0066 21.4699 24.1014 21.5927 24.1014H23.2668C23.2966 24.1014 23.3261 24.0955 23.3535 24.0839C23.381 24.0724 23.4059 24.0554 23.4267 24.0341C23.4475 24.0128 23.4638 23.9875 23.4747 23.9598C23.4855 23.932 23.4908 23.9024 23.49 23.8726C23.4621 22.5389 23.1859 21.2415 22.6669 20.0166ZM12.999 13.6104C11.7183 13.6104 10.5129 13.1109 9.6061 12.2041C8.69929 11.2973 8.19985 10.0919 8.19985 8.81125C8.19985 7.53055 8.69929 6.3252 9.6061 5.41839C10.5129 4.51158 11.7183 4.01214 12.999 4.01214C14.2796 4.01214 15.485 4.51158 16.3918 5.41839C17.2986 6.3252 17.7981 7.53055 17.7981 8.81125C17.7981 10.0919 17.2986 11.2973 16.3918 12.2041C15.485 13.1109 14.2796 13.6104 12.999 13.6104Z"
            fill="white" />
    </g>
</svg>