<svg width="158" height="31" viewBox="0 0 158 31" fill="none" xmlns="http://www.w3.org/2000/svg">
    <g clip-path="url(#clip0_716_2520)">
        <path
            d="M0 22.0078L3.54799 21.5276H4.32774L7.4749 22.0078V23.5143H0V22.0078ZM0.140918 2.23458H4.54068L4.56573 4.22132H4.11166L0.140918 3.74111V2.23458ZM2.98745 2.23458H4.57826L4.8413 12.5826V23.5143H2.98432V2.23458H2.98745ZM3.10019 2.23458H7.26509L14.0479 19.6319H12.9707L19.3871 2.23458H21.2942L13.4342 23.5143H11.4081L3.10019 2.23458ZM17.1669 22.0078L21.1376 21.5276H22.1992L26.6053 22.0078V23.5143H17.1638V22.0078H17.1669ZM19.7504 13.9102L19.8099 2.23145H23.956C23.8589 5.49559 23.8589 8.83193 23.8589 12.1745V13.5681C23.8589 16.895 23.8589 20.2313 23.956 23.5112H19.6564C19.7535 20.247 19.741 16.9107 19.7535 13.9071L19.7504 13.9102ZM21.7859 2.23458H26.5489V3.74111L22.1992 4.22132H21.7859V2.23458Z"
            fill="#7E37F9" />
        <path
            d="M28.2651 15.8343C28.2651 10.7089 31.8476 7.70215 35.9843 7.70215C40.121 7.70215 43.7034 10.6713 43.7034 15.8343C43.7034 20.9973 40.2807 23.9664 35.9843 23.9664C31.6879 23.9664 28.2651 20.9596 28.2651 15.8343ZM39.5323 15.8688C39.5323 11.4402 38.264 9.26517 35.9843 9.26517C33.7046 9.26517 32.4363 11.4434 32.4363 15.8688C32.4363 20.2942 33.6638 22.4034 35.9843 22.4034C38.3047 22.4034 39.5323 20.3068 39.5323 15.8688Z"
            fill="white" />
        <path
            d="M47.674 10.0372L44.6553 9.47854V8.15405H53.054V9.47854L49.6532 10.0372H47.674ZM49.9538 8.15719L54.5352 20.3758L52.8003 22.962L57.8953 8.15719H59.8806L53.9965 23.6368H52.1082L45.6417 8.15719H49.9506H49.9538ZM57.889 10.0027L54.9579 9.48168V8.15719H61.0142V9.48168L58.5748 10.0027H57.889Z"
            fill="white" />
        <path
            d="M64.3681 23.5144C64.4308 22.0707 64.4652 18.7657 64.4652 16.779V15.2599C64.4652 13.496 64.4339 12.5011 64.3681 11.2174L62.0728 10.9286V9.73597L67.8566 7.70529L68.3733 8.03798L68.2763 12.5325V16.779C68.2763 18.7689 68.3076 22.0707 68.3733 23.5144H64.3681ZM70.2616 22.2025V23.5144H62.3233V22.2025L65.5612 21.5622H67.1051L70.2585 22.2025H70.2616ZM63.9078 2.42302C63.9078 1.064 64.9757 0.131836 66.3253 0.131836C67.675 0.131836 68.7429 1.064 68.7429 2.42302C68.7429 3.78203 67.675 4.7142 66.3253 4.7142C64.9757 4.7142 63.9078 3.7632 63.9078 2.42302Z"
            fill="white" />
        <path
            d="M86.3513 14.1614C86.3513 14.877 86.2792 15.4451 86.1508 15.9222H73.9756V14.4H80.7709C82.3085 14.4 82.6811 13.744 82.6811 12.5764C82.6811 10.6054 81.416 9.25579 79.8346 9.25579C78.1499 9.25579 76.368 10.8471 76.368 15.4577C76.368 19.45 78.3565 21.4179 81.1467 21.4179C83.0319 21.4179 84.2625 20.5924 85.321 19.4217L86.2448 20.2346C85.011 22.6294 82.8315 23.9664 79.8252 23.9664C75.3472 23.9664 72.2939 20.9471 72.2939 15.9191C72.2939 10.891 76.0204 7.70532 80.0726 7.70532C83.8398 7.70532 86.345 10.279 86.345 14.1614H86.3513Z"
            fill="white" />
        <path
            d="M100.6 26.4522C100.6 25.269 99.8448 24.2709 97.8125 24.2709H94.2488C93.2687 24.2709 92.3762 24.1924 91.7217 23.9759V23.8221C90.0902 23.3858 89.3386 22.4599 89.3386 21.1825C89.3386 19.7764 90.2969 18.43 92.3793 16.7006L93.1528 17.2059C92.4388 18.0314 92.1163 18.6434 92.1163 19.5222C92.1163 20.3288 92.539 20.8467 93.9733 20.8467H97.9503C102.115 20.8467 103.781 22.5541 103.781 25.247C103.781 28.2632 100.841 31.0001 95.1601 31.0001C90.1998 31.0001 88.418 29.3021 88.418 27.1678C88.418 25.5954 89.4921 24.3745 92.3136 23.2666L92.6267 23.5051C91.6528 24.6162 91.2676 25.3537 91.2676 26.4868C91.2676 28.4986 92.7582 29.3209 95.467 29.3209C98.8333 29.3209 100.593 28.0561 100.593 26.4522H100.6ZM95.3793 7.70221C99.3031 7.70221 101.583 9.64501 101.583 12.928C101.583 16.211 99.2624 18.1192 95.3605 18.1192C91.4587 18.1192 89.1382 16.1639 89.1382 12.928C89.1382 9.69209 91.4587 7.70221 95.3793 7.70221ZM92.6768 12.9249C92.6768 15.2317 93.5693 16.7163 95.2979 16.7163C97.0265 16.7163 98.063 15.169 98.063 12.8432C98.063 10.5175 97.111 9.10203 95.3981 9.10203C93.6852 9.10203 92.6768 10.618 92.6768 12.9249ZM103.524 7.66769L104.016 7.98783V10.2225H99.3688V9.2621L103.524 7.66455V7.66769Z"
            fill="#7E37F9" />
        <path
            d="M110.915 0L111.397 0.29189L111.269 4.81148V16.7758C111.269 19.0199 111.3 21.2672 111.366 23.5113H107.32C107.382 21.2672 107.417 19.0199 107.417 16.7758V3.00364L105.1 2.68351V1.44376L110.912 0L110.915 0ZM113.505 22.2025V23.5144H105.184V22.2025L108.519 21.5622H110.063L113.505 22.2025Z"
            fill="white" />
        <path
            d="M120.917 14.8394C122.248 14.4062 124.396 13.8162 125.949 13.4929V14.7421C124.474 15.0779 122.667 15.6177 121.719 16.0258C119.567 16.8889 118.928 18.0376 118.928 19.2617C118.928 20.9157 119.909 21.625 121.18 21.625C122.041 21.625 122.611 21.2892 124.124 20.2001L125.091 19.472L125.479 20.04L124.34 21.2421C122.608 23.0249 121.565 23.9696 119.426 23.9696C117.018 23.9696 115.183 22.5635 115.183 19.9114C115.183 17.8681 116.295 16.3428 120.914 14.8394H120.917ZM123.964 20.7274V13.0472C123.964 10.0561 123.244 9.25265 121.167 9.25265C120.406 9.25265 119.517 9.34995 118.227 9.77052L119.977 8.6469L119.451 11.1358C119.27 12.6769 118.506 13.3674 117.453 13.3674C116.401 13.3674 115.806 12.8495 115.65 11.9205C116.035 9.36564 118.509 7.70532 122.426 7.70532C126.134 7.70532 127.747 9.33112 127.747 13.5023V20.5014C127.747 21.534 128.101 21.9389 128.696 21.9389C129.134 21.9389 129.438 21.7098 129.804 21.2327L130.549 21.8667C129.782 23.3575 128.777 23.9037 127.252 23.9037C125.279 23.9037 124.105 22.6922 123.964 20.7274Z"
            fill="white" />
        <path
            d="M131.915 22.6169L131.893 18.8976H134.035L134.83 22.9433L133.145 22.2653V21.057C134.407 21.9107 135.575 22.3595 137.116 22.3595C139.264 22.3595 140.345 21.5654 140.345 20.1845C140.345 18.9949 139.571 18.3107 137.51 17.6328L135.91 17.1118C133.502 16.3177 132.037 14.8645 132.037 12.5671C132.037 9.92749 134.201 7.7085 138.14 7.7085C139.95 7.7085 141.39 8.17929 142.906 9.01102L142.731 12.3913H140.636L139.856 8.78504L141.325 9.42845V10.4391C140.241 9.67326 139.355 9.31546 138.062 9.31546C136.358 9.31546 135.372 10.0625 135.372 11.3179C135.372 12.4792 136.007 13.0598 138.196 13.7911L139.461 14.1897C142.58 15.2349 143.795 16.8261 143.795 19.0138C143.795 21.9044 141.387 23.9696 137.078 23.9696C135.134 23.9696 133.546 23.5177 131.918 22.62L131.915 22.6169Z"
            fill="white" />
        <path
            d="M146.122 22.6169L146.1 18.8976H148.242L149.037 22.9433L147.353 22.2653V21.057C148.615 21.9107 149.783 22.3595 151.323 22.3595C153.472 22.3595 154.552 21.5654 154.552 20.1845C154.552 18.9949 153.779 18.3107 151.718 17.6328L150.118 17.1118C147.71 16.3177 146.244 14.8645 146.244 12.5671C146.244 9.92749 148.408 7.7085 152.347 7.7085C154.157 7.7085 155.595 8.17929 157.114 9.01102L156.938 12.3913H154.843L154.064 8.78504L155.532 9.42845V10.4391C154.449 9.67326 153.562 9.31546 152.269 9.31546C150.566 9.31546 149.579 10.0625 149.579 11.3179C149.579 12.4792 150.215 13.0598 152.404 13.7911L153.669 14.1897C156.788 15.2349 158.003 16.8261 158.003 19.0138C158.003 21.9044 155.595 23.9696 151.286 23.9696C149.341 23.9696 147.754 23.5177 146.125 22.62L146.122 22.6169Z"
            fill="white" />
    </g>
    <defs>
        <clipPath id="clip0_716_2520">
            <rect width="158" height="31" fill="white" />
        </clipPath>
    </defs>
</svg>