<svg width="158" height="29" viewBox="0 0 158 29" fill="none" xmlns="http://www.w3.org/2000/svg">
    <g clip-path="url(#clip0_366_814)">
        <path
            d="M6.05528 1.31934L11.4214 14.4056H11.6506L17.0183 1.31934H23.0735V22.0977H18.3098V9.18341H18.1379L13.0862 21.9831H9.98732L4.93562 9.1261H4.7637V22.0977H0V1.31934H6.05528Z"
            fill="#7E37F9" />
        <path
            d="M29.2657 21.3809C28.0843 20.7109 27.1777 19.7719 26.5459 18.5612C25.9141 17.3504 25.5981 15.9472 25.5981 14.35C25.5981 12.7527 25.9141 11.348 26.5459 10.1387C27.1777 8.92798 28.0828 7.98905 29.2657 7.31901C30.4471 6.64898 31.8371 6.31396 33.4343 6.31396C35.0315 6.31396 36.4215 6.64898 37.6029 7.31901C38.7843 7.98905 39.6909 8.92798 40.3227 10.1387C40.9545 11.3495 41.2705 12.7527 41.2705 14.35C41.2705 15.9472 40.9545 17.3519 40.3227 18.5612C39.6909 19.7705 38.7843 20.7109 37.6029 21.3809C36.4215 22.0509 35.0315 22.3859 33.4343 22.3859C31.8371 22.3859 30.4471 22.0509 29.2657 21.3809ZM35.0124 18.188C35.4429 17.8191 35.7706 17.3005 35.9954 16.6304C36.2202 15.9604 36.3319 15.1904 36.3319 14.3206C36.3319 13.4507 36.2188 12.6793 35.9954 12.0107C35.7706 11.3407 35.4429 10.822 35.0124 10.4532C34.5819 10.0844 34.0647 9.9007 33.4622 9.9007C32.5336 9.9007 31.8136 10.3018 31.3022 11.1056C30.7909 11.9093 30.5352 12.9805 30.5352 14.3206C30.5352 15.6606 30.7909 16.7318 31.3022 17.5356C31.8136 18.3393 32.5336 18.7404 33.4622 18.7404C34.0647 18.7404 34.5819 18.5568 35.0124 18.188Z"
            fill="white" />
        <path
            d="M52.9061 22.0978H47.3665L42.0283 6.51367H47.1079L50.0643 17.3327H50.2362L53.1632 6.51367H58.2722L52.9061 22.0978Z"
            fill="white" />
        <path
            d="M61.3285 4.34052C60.9465 4.13481 60.6424 3.85269 60.4175 3.49416C60.1927 3.13564 60.0811 2.74625 60.0811 2.32455C60.0811 1.90284 60.1927 1.51345 60.4175 1.15493C60.6424 0.796399 60.9465 0.51428 61.3285 0.308568C61.7106 0.102856 62.1279 0 62.5775 0C63.0271 0 63.4459 0.102856 63.8324 0.308568C64.2203 0.51428 64.5288 0.796399 64.7581 1.15493C64.9873 1.51345 65.1019 1.90284 65.1019 2.32455C65.1019 2.74625 64.9873 3.13564 64.7581 3.49416C64.5288 3.85269 64.2203 4.13481 63.8324 4.34052C63.4444 4.54623 63.0257 4.64909 62.5775 4.64909C62.1294 4.64909 61.7121 4.54623 61.3285 4.34052ZM60.1384 6.51519H64.9888V22.0993H60.1384V6.51519Z"
            fill="white" />
        <path
            d="M71.1514 21.4162C69.9701 20.7711 69.0635 19.8469 68.4316 18.6464C67.7998 17.4459 67.4839 16.0221 67.4839 14.3779C67.4839 12.7337 67.7998 11.3715 68.4316 10.152C69.0635 8.93239 69.9598 7.98758 71.1221 7.31755C72.2843 6.64752 73.6361 6.3125 75.176 6.3125C76.7159 6.3125 77.9532 6.61813 79.086 7.23086C80.2189 7.84358 81.105 8.74725 81.7412 9.94332C82.3774 11.1394 82.6948 12.5794 82.6948 14.2618V15.4961H72.2491V15.5828C72.2491 16.5878 72.5356 17.3886 73.1101 17.9867C73.6846 18.5847 74.459 18.883 75.4347 18.883C76.0856 18.883 76.6469 18.7522 77.12 18.4877C77.5932 18.2232 77.9311 17.8588 78.1309 17.3901H82.636C82.445 18.404 82.0292 19.287 81.3871 20.0379C80.7464 20.7887 79.9118 21.3677 78.8833 21.7747C77.8547 22.1817 76.6763 22.3845 75.3465 22.3845C73.7302 22.3845 72.3313 22.0612 71.15 21.4162H71.1514ZM78.1897 12.6558C78.1794 12.1106 78.0516 11.6228 77.8018 11.1923C77.5535 10.7618 77.2082 10.4253 76.7688 10.1814C76.328 9.93744 75.8358 9.81548 75.2907 9.81548C74.7455 9.81548 74.2165 9.94038 73.7625 10.1887C73.3085 10.437 72.947 10.7764 72.6796 11.207C72.4122 11.6375 72.2682 12.1209 72.2491 12.6558H78.1897Z"
            fill="white" />
        <path
            d="M88.6074 27.6448C87.526 27.229 86.6825 26.6427 86.0742 25.8874C85.4674 25.1322 85.125 24.2609 85.0486 23.2764H89.755C89.8505 23.8215 90.1429 24.2256 90.6307 24.4886C91.1186 24.7516 91.7548 24.8839 92.5394 24.8839C94.5099 24.8839 95.4958 23.9655 95.4958 22.1288V19.3737H95.3239C94.9992 20.1202 94.4585 20.727 93.7017 21.1957C92.9465 21.6645 92.0134 21.8996 90.904 21.8996C89.7183 21.8996 88.653 21.6219 87.7111 21.0679C86.7692 20.5125 86.0228 19.6647 85.4732 18.5215C84.9237 17.3783 84.6475 15.9604 84.6475 14.2662C84.6475 12.572 84.9296 11.0571 85.4938 9.86102C86.0581 8.66495 86.8133 7.77598 87.7611 7.19264C88.7088 6.6093 89.7462 6.31689 90.8747 6.31689C92.0031 6.31689 92.9626 6.59167 93.6944 7.14268C94.4261 7.69223 94.9595 8.37401 95.2945 9.18805H95.4385V6.51967H100.26V22.189C100.26 23.4806 99.9348 24.5826 99.2839 25.4966C98.6329 26.4105 97.7175 27.1011 96.5361 27.5699C95.3548 28.0386 93.9838 28.2737 92.4248 28.2737C90.9613 28.2737 89.6889 28.0651 88.6074 27.6492V27.6448ZM94.7127 17.2622C95.2343 16.5452 95.4944 15.5445 95.4944 14.2633C95.4944 12.982 95.2357 11.9549 94.72 11.2143C94.2028 10.4737 93.4769 10.102 92.5394 10.102C91.602 10.102 90.8923 10.4782 90.3795 11.229C89.8681 11.9798 89.6125 12.9922 89.6125 14.2633C89.6125 15.5343 89.8681 16.5452 90.3795 17.2622C90.8908 17.9793 91.6108 18.3378 92.5394 18.3378C93.4681 18.3378 94.1925 17.9793 94.7127 17.2622Z"
            fill="#7E37F9" />
        <path d="M108.209 22.0977H103.358V1.31934H108.209V22.0977Z" fill="white" />
        <path
            d="M112.184 14.2057C113.246 13.4402 114.638 13.0008 116.36 12.8862C117.221 12.8289 118.273 12.7804 119.516 12.7422C119.669 12.7231 119.86 12.7128 120.091 12.7128V11.4506C120.091 10.9055 119.904 10.4867 119.531 10.1958C119.158 9.90339 118.636 9.75792 117.968 9.75792C117.299 9.75792 116.795 9.89163 116.404 10.1591C116.012 10.4265 115.768 10.8188 115.672 11.336H111.167C111.235 10.3986 111.542 9.54927 112.093 8.78961C112.643 8.02847 113.427 7.42603 114.447 6.98228C115.467 6.53853 116.679 6.31519 118.085 6.31519C119.385 6.31519 120.555 6.51796 121.594 6.92497C122.631 7.33199 123.45 7.92415 124.048 8.70438C124.646 9.48462 124.944 10.4191 124.944 11.5094V22.0992H120.382V19.9186H120.267C119.826 20.7224 119.23 21.3336 118.473 21.7553C117.718 22.1756 116.804 22.3872 115.733 22.3872C114.719 22.3872 113.827 22.2152 113.057 21.8699C112.287 21.5261 111.685 21.006 111.25 20.3124C110.815 19.6189 110.597 18.7696 110.597 17.766C110.597 16.1585 111.128 14.9727 112.19 14.2072L112.184 14.2057ZM115.736 18.7549C116.104 19.0326 116.589 19.1707 117.192 19.1707C117.737 19.1707 118.235 19.0605 118.685 18.8401C119.134 18.6197 119.488 18.3111 119.747 17.9144C120.006 17.5177 120.129 17.0651 120.12 16.5582V15.5531H119.834L117.165 15.725C116.553 15.8014 116.069 15.9998 115.716 16.3201C115.362 16.6405 115.186 17.0548 115.186 17.5618C115.186 18.0687 115.37 18.4757 115.738 18.7534L115.736 18.7549Z"
            fill="white" />
        <path
            d="M136.138 10.102C135.712 9.79637 135.174 9.64355 134.524 9.64355C133.911 9.64355 133.402 9.76992 132.995 10.0241C132.588 10.2783 132.39 10.6001 132.4 10.9924C132.371 11.6625 132.965 12.1121 134.18 12.3413L137.136 12.9158C138.686 13.2215 139.841 13.7196 140.601 14.4087C141.362 15.0979 141.747 16.0059 141.756 17.1344C141.745 18.1777 141.437 19.096 140.83 19.8895C140.223 20.6829 139.378 21.2986 138.297 21.7335C137.215 22.1685 135.977 22.3859 134.581 22.3859C133.185 22.3859 131.852 22.1802 130.785 21.7688C129.719 21.3574 128.881 20.7696 128.274 20.0041C127.667 19.2385 127.31 18.3393 127.205 17.3063H132.026C132.112 17.8617 132.381 18.2864 132.837 18.5832C133.291 18.88 133.881 19.0284 134.609 19.0284C135.279 19.0284 135.817 18.9065 136.224 18.6626C136.631 18.4186 136.838 18.0807 136.848 17.6516C136.829 17.3078 136.661 17.0227 136.346 16.7979C136.03 16.5731 135.537 16.3894 134.867 16.2454L132.199 15.7576C130.668 15.4711 129.516 14.9465 128.74 14.1868C127.966 13.4257 127.587 12.4486 127.607 11.2525C127.597 10.2284 127.867 9.34674 128.418 8.60471C128.968 7.86414 129.76 7.29697 130.793 6.90464C131.826 6.51232 133.041 6.31689 134.437 6.31689C135.833 6.31689 137.027 6.51967 138.046 6.92668C139.064 7.3337 139.859 7.91263 140.427 8.66348C140.996 9.41433 141.315 10.3062 141.381 11.3392H136.876C136.808 10.822 136.563 10.412 136.137 10.1049L136.138 10.102Z"
            fill="white" />
        <path
            d="M152.383 10.102C151.956 9.79637 151.419 9.64355 150.768 9.64355C150.155 9.64355 149.647 9.76992 149.24 10.0241C148.833 10.2783 148.634 10.6001 148.644 10.9924C148.615 11.6625 149.209 12.1121 150.424 12.3413L153.38 12.9158C154.93 13.2215 156.085 13.7196 156.845 14.4087C157.606 15.0979 157.991 16.0059 158 17.1344C157.99 18.1777 157.681 19.096 157.074 19.8895C156.467 20.6829 155.622 21.2986 154.541 21.7335C153.46 22.1685 152.221 22.3859 150.825 22.3859C149.429 22.3859 148.096 22.1802 147.03 21.7688C145.963 21.3574 145.125 20.7696 144.518 20.0041C143.912 19.2385 143.555 18.3393 143.449 17.3063H148.27C148.356 17.8617 148.625 18.2864 149.081 18.5832C149.535 18.88 150.126 19.0284 150.853 19.0284C151.523 19.0284 152.061 18.9065 152.468 18.6626C152.875 18.4186 153.082 18.0807 153.092 17.6516C153.073 17.3078 152.906 17.0227 152.59 16.7979C152.274 16.5731 151.782 16.3894 151.112 16.2454L148.443 15.7576C146.912 15.4711 145.76 14.9465 144.984 14.1868C144.21 13.4257 143.831 12.4486 143.851 11.2525C143.841 10.2284 144.111 9.34674 144.662 8.60471C145.212 7.86414 146.004 7.29697 147.037 6.90464C148.07 6.51232 149.285 6.31689 150.681 6.31689C152.077 6.31689 153.271 6.51967 154.29 6.92668C155.308 7.3337 156.103 7.91263 156.672 8.66348C157.24 9.41433 157.559 10.3062 157.625 11.3392H153.12C153.053 10.822 152.807 10.412 152.381 10.1049L152.383 10.102Z"
            fill="white" />
    </g>
    <defs>
        <clipPath id="clip0_366_814">
            <rect width="158" height="28.2678" fill="white" />
        </clipPath>
    </defs>
</svg>