<svg width="111" height="48" viewBox="0 0 111 48" fill="none" xmlns="http://www.w3.org/2000/svg">
    <g clip-path="url(#clip0_366_826)">
        <path d="M57.6475 9.23356C57.6475 9.23356 105.986 8.09462 106.234 45.1183" stroke="#7E37F9"
            stroke-width="7.59845" stroke-miterlimit="10" />
        <path
            d="M68.4697 35.2632C66.0271 38.1683 62.366 40.0143 58.2728 40.0143C54.1795 40.0143 50.5175 38.1674 48.0759 35.2632H31.5019C29.0593 38.1683 25.3982 40.0143 21.305 40.0143C17.2118 40.0143 13.5498 38.1674 11.1081 35.2632H1.7915C5.08807 42.7616 12.584 47.9991 21.3041 47.9991C29.2115 47.9991 36.1118 43.694 39.7879 37.3007C43.4641 43.694 50.3653 47.9991 58.2718 47.9991C66.9928 47.9991 74.4878 42.7616 77.7844 35.2632H68.4687H68.4697Z"
            fill="white" />
        <path
            d="M8.00983 27.4407C7.99668 27.1975 7.98916 26.9533 7.98916 26.7073C7.98916 19.3572 13.951 13.3996 21.3041 13.3996C28.6573 13.3996 34.6191 19.3582 34.6191 26.7073C34.6191 26.9533 34.6116 27.1975 34.5984 27.4407H44.9766C44.9635 27.1975 44.956 26.9533 44.956 26.7073C44.956 19.3572 50.9178 13.3996 58.2709 13.3996C65.6241 13.3996 71.5859 19.3582 71.5859 26.7073C71.5859 26.9533 71.5784 27.1975 71.5652 27.4407H79.561C79.5694 27.1975 79.5751 26.9533 79.5751 26.7073C79.5751 14.9479 70.0367 5.41479 58.2709 5.41479C50.3635 5.41479 43.4632 9.71988 39.7871 16.1132C36.1109 9.71988 29.2097 5.41479 21.3032 5.41479C9.53833 5.41386 0 14.947 0 26.7073C0 26.9533 0.00563676 27.1975 0.0140919 27.4407H8.00983Z"
            fill="#7E37F9" />
        <path d="M8.07566 0H0.0141602V27.4408H8.07566V0Z" fill="#7E37F9" />
    </g>
    <defs>
        <clipPath id="clip0_366_826">
            <rect width="110.085" height="48" fill="white" />
        </clipPath>
    </defs>
</svg>