<svg width="28" height="8" viewBox="0 0 28 8" fill="none" xmlns="http://www.w3.org/2000/svg">
    <path
        d="M3.99984 7.33317C3.08317 7.33317 2.29845 7.00678 1.64567 6.354C0.992893 5.70123 0.666504 4.9165 0.666504 3.99984C0.666504 3.08317 0.992893 2.29845 1.64567 1.64567C2.29845 0.992893 3.08317 0.666504 3.99984 0.666504C4.9165 0.666504 5.70123 0.992893 6.354 1.64567C7.00678 2.29845 7.33317 3.08317 7.33317 3.99984C7.33317 4.9165 7.00678 5.70123 6.354 6.354C5.70123 7.00678 4.9165 7.33317 3.99984 7.33317ZM13.9998 7.33317C13.0832 7.33317 12.2984 7.00678 11.6457 6.354C10.9929 5.70123 10.6665 4.9165 10.6665 3.99984C10.6665 3.08317 10.9929 2.29845 11.6457 1.64567C12.2984 0.992893 13.0832 0.666504 13.9998 0.666504C14.9165 0.666504 15.7012 0.992893 16.354 1.64567C17.0068 2.29845 17.3332 3.08317 17.3332 3.99984C17.3332 4.9165 17.0068 5.70123 16.354 6.354C15.7012 7.00678 14.9165 7.33317 13.9998 7.33317ZM23.9998 7.33317C23.0832 7.33317 22.2984 7.00678 21.6457 6.354C20.9929 5.70123 20.6665 4.9165 20.6665 3.99984C20.6665 3.08317 20.9929 2.29845 21.6457 1.64567C22.2984 0.992893 23.0832 0.666504 23.9998 0.666504C24.9165 0.666504 25.7012 0.992893 26.354 1.64567C27.0068 2.29845 27.3332 3.08317 27.3332 3.99984C27.3332 4.9165 27.0068 5.70123 26.354 6.354C25.7012 7.00678 24.9165 7.33317 23.9998 7.33317Z"
        fill="#7E37F9" />
</svg>